<svg width="30" height="72" viewBox="0 0 30 72" fill="none" xmlns="http://www.w3.org/2000/svg">
<path d="M29.2931 1.42871C27.7909 1.94991 25.9515 2.68733 24.916 3.92993" stroke="white" stroke-linecap="round" stroke-linejoin="round"/>
<path d="M19.444 8.93262C18.2108 9.93088 17.1625 10.7011 16.1611 11.9028" stroke="white" stroke-linecap="round" stroke-linejoin="round"/>
<path d="M11.1587 17.2178C10.1741 18.5567 9.03829 19.7096 8.18848 21.1259" stroke="white" stroke-linecap="round" stroke-linejoin="round"/>
<path d="M5.21861 25.6592C4.7748 27.0184 3.94036 28.2433 3.49902 29.5673" stroke="white" stroke-linecap="round" stroke-linejoin="round"/>
<path d="M1.93593 35.9775C1.73939 37.2551 1.1543 38.4552 1.1543 39.7294" stroke="white" stroke-linecap="round" stroke-linejoin="round"/>
<path d="M0.841797 45.8252C0.841797 47.18 0.841797 48.5348 0.841797 49.8897" stroke="white" stroke-linecap="round" stroke-linejoin="round"/>
<path d="M1.31055 54.8926C1.66177 57.1755 2.11159 59.2956 3.49911 61.1456" stroke="white" stroke-linecap="round" stroke-linejoin="round"/>
<path d="M6 64.8975C7.11582 66.0133 7.98956 67.6038 9.28285 68.493C10.2145 69.1335 10.972 70.4004 12.0967 70.6815" stroke="white" stroke-linecap="round" stroke-linejoin="round"/>
<path d="M7.40723 70.0558C8.75069 70.0558 9.92115 70.173 11.2285 70.4466C11.7438 70.5545 13.1524 71.2626 12.7223 70.959C11.7892 70.3004 11.628 68.7516 11.628 67.7109" stroke="white" stroke-linecap="round" stroke-linejoin="round"/>
</svg>
