<svg width="76" height="31" viewBox="0 0 76 31" fill="none" xmlns="http://www.w3.org/2000/svg">
<path d="M3.60645 16.4837C4.13013 14.8217 4.7969 13.4848 5.6105 11.9785" stroke="white" stroke-linecap="round" stroke-linejoin="round"/>
<path d="M13.876 6.14799C16.8414 4.53331 19.7607 2.4983 23.1447 2.17285" stroke="white" stroke-linecap="round" stroke-linejoin="round"/>
<path d="M31.1621 0.847579C33.1008 0.847579 35.075 0.737877 37.0073 0.90647C38.0641 0.998675 39.489 0.879396 40.4309 1.3776" stroke="white" stroke-linecap="round" stroke-linejoin="round"/>
<path d="M47.9463 3.23438C49.4162 3.30843 50.6653 4.28674 52.0101 4.88332C53.2605 5.43804 53.917 7.1323 55.211 7.47452" stroke="white" stroke-linecap="round" stroke-linejoin="round"/>
<path d="M60.2207 10.6543C61.3921 12.2315 62.3275 13.8942 63.533 15.4245C64.1562 16.2156 65.1017 16.5978 65.704 17.412C66.0642 17.8989 66.1712 18.4061 66.7339 18.6046" stroke="white" stroke-linecap="round" stroke-linejoin="round"/>
<path d="M71.7432 24.1699C72.727 25.8768 74.9998 27.919 74.9998 30.0001" stroke="white" stroke-linecap="round" stroke-linejoin="round"/>
<path d="M3.60511 16.2188C2.87692 17.7915 2.252 19.5594 1.85156 21.2539" stroke="white" stroke-linecap="round" stroke-linejoin="round"/>
<path d="M0.850586 16.749C1.60761 18.8513 1.60211 20.7613 1.60211 22.9767C1.60211 23.8392 3.26174 21.4765 3.41133 21.3131C4.87829 19.7103 6.43083 18.3505 8.1153 17.014" stroke="white" stroke-linecap="round" stroke-linejoin="round"/>
</svg>
