<svg width="89" height="57" viewBox="0 0 89 57" fill="none" xmlns="http://www.w3.org/2000/svg">
<path d="M83.9 23.9H18.05L32.45 9.49997C32.9129 9.03706 33.2801 8.48751 33.5307 7.88269C33.7812 7.27786 33.9101 6.62962 33.9101 5.97497C33.9101 5.32032 33.7812 4.67207 33.5307 4.06725C33.2801 3.46243 32.9129 2.91288 32.45 2.44997C31.9871 1.98706 31.4376 1.61986 30.8327 1.36934C30.2279 1.11881 29.5797 0.989868 28.925 0.989868C28.2704 0.989868 27.6221 1.11881 27.0173 1.36934C26.4125 1.61986 25.8629 1.98706 25.4 2.44997L2.45001 25.4C1.9865 25.8625 1.61876 26.412 1.36785 27.0168C1.11694 27.6217 0.987793 28.2701 0.987793 28.925C0.987793 29.5798 1.11694 30.2282 1.36785 30.8331C1.61876 31.438 1.9865 31.9874 2.45001 32.45L25.4 55.4C25.8629 55.8629 26.4125 56.2301 27.0173 56.4806C27.6221 56.7311 28.2704 56.8601 28.925 56.8601C29.5797 56.8601 30.2279 56.7311 30.8327 56.4806C31.4376 56.2301 31.9871 55.8629 32.45 55.4C32.9129 54.9371 33.2801 54.3875 33.5307 53.7827C33.7812 53.1779 33.9101 52.5296 33.9101 51.875C33.9101 51.2203 33.7812 50.5721 33.5307 49.9673C33.2801 49.3624 32.9129 48.8129 32.45 48.35L18.05 33.9H83.9C86.65 33.9 88.9 31.65 88.9 28.9C88.9 26.15 86.65 23.9 83.9 23.9V23.9Z" fill="white"/>
</svg>
