<?xml version="1.0"?>
<svg xmlns="http://www.w3.org/2000/svg" xmlns:xlink="http://www.w3.org/1999/xlink" xmlns:svgjs="http://svgjs.com/svgjs" version="1.1" width="512" height="512" x="0" y="0" viewBox="0 0 512 512" style="enable-background:new 0 0 512 512" xml:space="preserve"><g><g xmlns="http://www.w3.org/2000/svg" id="_16_copy_3" data-name="16 copy 3"><g><rect x="128" y="128" width="16" height="16" fill="#ffffff" data-original="#000000" style=""/><rect x="192" y="128" width="16" height="16" fill="#ffffff" data-original="#000000" style=""/><path d="M192,180H176c0,1.41-3.037,4-8,4s-8-2.59-8-4H144c0,11.215,10.542,20,24,20S192,191.215,192,180Z" fill="#ffffff" data-original="#000000" style=""/><path d="M312,256a24,24,0,1,0,24,24A24.028,24.028,0,0,0,312,256Zm0,32a8,8,0,1,1,8-8A8.009,8.009,0,0,1,312,288Z" fill="#ffffff" data-original="#000000" style=""/><path d="M440,256a24,24,0,1,0,24,24A24.028,24.028,0,0,0,440,256Zm0,32a8,8,0,1,1,8-8A8.009,8.009,0,0,1,440,288Z" fill="#ffffff" data-original="#000000" style=""/><rect x="352" y="264" width="16" height="16" fill="#ffffff" data-original="#000000" style=""/><rect x="384" y="264" width="16" height="16" fill="#ffffff" data-original="#000000" style=""/><rect x="192" y="384" width="32" height="16" fill="#ffffff" data-original="#000000" style=""/><path d="M488,448h-8V376H464v72H411.747A47.809,47.809,0,0,0,424,416V400a8,8,0,0,0-8-8H336a8,8,0,0,0-8,8v16a47.809,47.809,0,0,0,12.253,32H312v16H480v16H320v16H488a8,8,0,0,0,8-8V456A8,8,0,0,0,488,448Zm-80-32a32,32,0,0,1-64,0v-8h64Z" fill="#ffffff" data-original="#000000" style=""/><path d="M478,232H274a18.021,18.021,0,0,0-18,18v23.89l-39.285-15.11L209,220.206l10.167-5.149A37.818,37.818,0,0,0,240,181.156V168h6a18.021,18.021,0,0,0,18-18V130a18.021,18.021,0,0,0-18-18h-6v-2.672A38.063,38.063,0,0,0,264,74V24a8,8,0,0,0-8-8H152V32h96V74a22.025,22.025,0,0,1-22,22H211.313L189.657,74.343A8,8,0,0,0,176,80V96H156.313L134.657,74.343A8,8,0,0,0,121,80V96H106a2,2,0,0,1-2-2V54a22.025,22.025,0,0,1,22-22h10V16H126A38.043,38.043,0,0,0,88,54V94a18,18,0,0,0,8,14.96V112H90a18.021,18.021,0,0,0-18,18v20a18.021,18.021,0,0,0,18,18h6v13.459a37.792,37.792,0,0,0,21.006,33.988l9.951,4.976-7.672,38.357L40.358,289.137A38.226,38.226,0,0,0,16,324.6V424H32V324.6A22.13,22.13,0,0,1,46.1,304.07l12.3-4.732L80,392.911V424H64v16H192v40H44a12.013,12.013,0,0,1-12-12V440H16v28a28.032,28.032,0,0,0,28,28H296a8,8,0,0,0,8-8,63.733,63.733,0,0,0-16-42.288V328h40v14a18.026,18.026,0,0,0,16,17.889V376h16V360h32v16h16V359.889A18.026,18.026,0,0,0,424,342V328h40v32h16V327.889A18.026,18.026,0,0,0,496,310V250A18.021,18.021,0,0,0,478,232ZM240,128h6a2,2,0,0,1,2,2v20a2,2,0,0,1-2,2h-6ZM96,152H90a2,2,0,0,1-2-2V130a2,2,0,0,1,2-2h6ZM271.036,327.756c.318.053.64.1.964.133v104.7a63.577,63.577,0,0,0-16-6.564V392.911ZM124.162,201.137A21.881,21.881,0,0,1,112,181.459V112h17a8,8,0,0,0,8-8V99.314l10.343,10.343A8,8,0,0,0,153,112h31a8,8,0,0,0,8-8V99.314l10.343,10.343A8,8,0,0,0,208,112h16v69.156a21.894,21.894,0,0,1-12.062,19.627l-38.573,19.533a12.054,12.054,0,0,1-10.788.028Zm76.722,82.47A11.956,11.956,0,0,1,191.6,288H144.4a12,12,0,0,1-11.767-14.353l9.162-45.807,13.63,6.815a28.12,28.12,0,0,0,25.172-.064l13.59-6.882,9.188,45.937A11.956,11.956,0,0,1,200.884,283.607Zm-84.475-6.577A28.013,28.013,0,0,0,144.4,304H191.6a28.013,28.013,0,0,0,27.987-26.97l11.927,4.587L217.441,352H118.559l-14.077-70.383ZM96,424V392a7.955,7.955,0,0,0-.2-1.8L73.562,293.855,89.8,289.8l14.354,71.773A8,8,0,0,0,112,368H224a8,8,0,0,0,7.845-6.431L246.2,289.8l9.8,2.45V310a17.917,17.917,0,0,0,1.213,6.5l-17.008,73.7A7.955,7.955,0,0,0,240,392v32Zm112,56V440h32a48.078,48.078,0,0,1,47.333,40ZM408,342a2,2,0,0,1-2,2H346a2,2,0,0,1-2-2V328h64Zm72-32a2,2,0,0,1-2,2H274a2,2,0,0,1-2-2V250a2,2,0,0,1,2-2H478a2,2,0,0,1,2,2Z" fill="#ffffff" data-original="#000000" style=""/></g></g></g></svg>
