<svg width="141" height="168" viewBox="0 0 141 168" fill="none" xmlns="http://www.w3.org/2000/svg">
<path d="M19.5757 19.5188C19.2679 16.5681 21.5821 14 24.5487 14H116.451C119.418 14 121.732 16.5681 121.424 19.5188L108.902 139.556C108.105 147.197 101.665 153 93.9834 153H46.1155C38.9459 153 32.935 147.583 32.1911 140.453L19.5757 19.5188Z" fill="#652400"/>
<path d="M19.5757 19.5188C19.2679 16.5681 21.5821 14 24.5487 14H71C73.7614 14 76 16.2386 76 19V147V147C76 150.314 73.3137 153 70 153H46.1155C38.9459 153 32.935 147.583 32.1911 140.453L19.5757 19.5188Z" fill="url(#paint0_linear)"/>
<path d="M19.5767 19.5196C19.2684 16.5687 21.5826 14 24.5496 14H116.45C119.417 14 121.732 16.5687 121.423 19.5196L118.5 47.5V47.5C118.201 48.3958 117.363 49 116.419 49H24C23.1716 49 22.5 48.3284 22.5 47.5V47.5L19.5767 19.5196Z" fill="#FFA573"/>
<path d="M1.68605 13.4884C0.790769 6.32615 6.37541 0 13.5934 0H127.487C134.676 0 140.252 6.27921 139.403 13.4186L122.47 155.655C121.631 162.697 115.66 168 108.568 168H33.3589C26.2984 168 20.3428 162.742 19.4671 155.736L1.68605 13.4884Z" fill="url(#paint1_linear)" fill-opacity="0.5"/>
<path d="M1.68605 13.4884C0.790769 6.32615 6.37541 0 13.5934 0H54.5V0C55.3369 0 56.0237 0.662629 56.0535 1.49904L61.8929 165.002C61.9514 166.64 60.6392 168 59 168V168H33.359C26.2984 168 20.3428 162.742 19.4671 155.736L1.68605 13.4884Z" fill="url(#paint2_linear)" fill-opacity="0.5"/>
<circle cx="32" cy="32" r="5" fill="url(#paint3_linear)" fill-opacity="0.8"/>
<circle cx="96" cy="141" r="5" fill="url(#paint4_linear)" fill-opacity="0.8"/>
<rect x="28" y="40.1416" width="10" height="41" rx="5" transform="rotate(-6.55455 28 40.1416)" fill="url(#paint5_linear)" fill-opacity="0.8"/>
<defs>
<linearGradient id="paint0_linear" x1="33.5" y1="79.4515" x2="107.5" y2="79.4515" gradientUnits="userSpaceOnUse">
<stop stop-color="#CA8F6E"/>
<stop offset="1" stop-color="#CA8F6E" stop-opacity="0"/>
</linearGradient>
<linearGradient id="paint1_linear" x1="21" y1="78.9851" x2="121.001" y2="79.3839" gradientUnits="userSpaceOnUse">
<stop stop-color="#C5F1FF"/>
<stop offset="1" stop-color="#518D9F"/>
</linearGradient>
<linearGradient id="paint2_linear" x1="21" y1="78.9851" x2="121.001" y2="79.3839" gradientUnits="userSpaceOnUse">
<stop stop-color="white"/>
<stop offset="1" stop-color="#EEFBFF"/>
</linearGradient>
<linearGradient id="paint3_linear" x1="30.5" y1="27.5" x2="35.5" y2="35" gradientUnits="userSpaceOnUse">
<stop stop-color="white"/>
<stop offset="0.901042" stop-color="#A59882"/>
</linearGradient>
<linearGradient id="paint4_linear" x1="93" y1="137.5" x2="99" y2="146" gradientUnits="userSpaceOnUse">
<stop stop-color="white"/>
<stop offset="1" stop-color="#656158"/>
</linearGradient>
<linearGradient id="paint5_linear" x1="33" y1="40.1416" x2="33" y2="81.1416" gradientUnits="userSpaceOnUse">
<stop stop-color="#A59882"/>
<stop offset="1" stop-color="white"/>
</linearGradient>
</defs>
</svg>
