<svg width="50" height="50" viewBox="0 0 50 50" fill="none" xmlns="http://www.w3.org/2000/svg">
<rect width="50" height="50" rx="24" fill="#D9A689"/>
<circle cx="44.5" cy="9.5" r="2.5" fill="#D9A689"/>
<circle cx="9.5" cy="44.5" r="2.5" fill="#D9A689"/>
<circle cx="41.5" cy="6.5" r="3.5" fill="#D9A689"/>
<circle cx="5.5" cy="10.5" r="3.5" fill="#D9A689"/>
<circle cx="32.5" cy="12.5" r="2.5" fill="#B77B59"/>
<circle cx="27.5" cy="40.5" r="2.5" fill="#B77B59"/>
<circle cx="11.5" cy="17.5" r="2.5" fill="#B77B59"/>
<circle cx="39.5" cy="34.5" r="2.5" fill="#B77B59"/>
<circle cx="11.5" cy="33.5" r="2.5" fill="#B77B59"/>
<circle cx="24" cy="25" r="3" fill="#B77B59"/>
<circle cx="42" cy="21" r="3" fill="#B77B59"/>
<circle cx="5.5" cy="10.5" r="2.5" fill="#B77B59"/>
<circle cx="41.5" cy="6.5" r="2.5" fill="#B77B59"/>
<circle cx="24" cy="25" r="2" fill="#593622"/>
<circle cx="42" cy="21" r="2" fill="#593622"/>
<circle cx="27.5" cy="40.5" r="1.5" fill="#593622"/>
<circle cx="39.5" cy="34.5" r="1.5" fill="#593622"/>
<circle cx="32.5" cy="12.5" r="1.5" fill="#593622"/>
<circle cx="44.5" cy="9.5" r="1.5" fill="#593622"/>
<circle cx="5.5" cy="10.5" r="1.5" fill="#593622"/>
<circle cx="11.5" cy="17.5" r="1.5" fill="#593622"/>
<circle cx="11.5" cy="33.5" r="1.5" fill="#593622"/>
</svg>
