<svg xmlns="http://www.w3.org/2000/svg" xmlns:xlink="http://www.w3.org/1999/xlink" viewBox="0 0 296 450.05"><defs><style>.cls-1{stroke:#fff;fill:url(#Безымянный_градиент_43);}.cls-1,.cls-7{stroke-miterlimit:10;}.cls-2{fill:#883b36;}.cls-3{fill:url(#Безымянный_градиент_81);}.cls-4{fill:#eab4a9;}.cls-5,.cls-8{fill:#eae2ce;}.cls-6{fill:#563133;}.cls-10,.cls-11,.cls-12,.cls-6,.cls-8{opacity:0.5;}.cls-7{fill:none;stroke:#e6e6e6;stroke-width:10px;}.cls-10,.cls-9{fill:#ffe6d9;}.cls-9{opacity:0.3;}.cls-11{fill:#7f7f7f;}.cls-12{fill:#aaa;}</style><linearGradient id="Безымянный_градиент_43" x1="6.85" y1="52.99" x2="290.03" y2="52.99" gradientUnits="userSpaceOnUse"><stop offset="0" stop-color="#4d4d4d"/><stop offset="0.52" stop-color="#e0e0e0"/><stop offset="1" stop-color="#4d4d4d"/></linearGradient><linearGradient id="Безымянный_градиент_81" x1="4.5" y1="276.27" x2="291.5" y2="276.27" gradientUnits="userSpaceOnUse"><stop offset="0" stop-color="#b0b0ae"/><stop offset="0.53" stop-color="#343436"/><stop offset="1"/></linearGradient></defs><g id="Слой_2" data-name="Слой 2"><g id="Слой_2-2" data-name="Слой 2"><path class="cls-1" d="M7,101l283-4S295.57,6.9,146.12,5,7,101,7,101Z"/><ellipse class="cls-2" cx="147.75" cy="108.54" rx="141.25" ry="86.96"/><path class="cls-3" d="M291.5,102.5,262,382s-8,66-115,68S22,387.8,22,387.8L4.5,105.5s22,69.09,143,68C258.5,172.5,291.5,102.5,291.5,102.5Z"/><path class="cls-4" d="M113.16,43a2.94,2.94,0,0,0-.77-1.32l-.61-.47a3,3,0,0,0-1.51-.41h-.34a2.2,2.2,0,0,0-1.16.26,2.7,2.7,0,0,0-1.59,1.58,2.29,2.29,0,0,0-.25,1.16c0,.26.07.53.1.8a3.15,3.15,0,0,0,.77,1.32l.61.47a3,3,0,0,0,1.52.41h.34a3.38,3.38,0,0,0,2.12-.88,2.22,2.22,0,0,0,.62-1,2.26,2.26,0,0,0,.26-1.15Z"/><path class="cls-4" d="M102.44,50c-3.86,0-3.87,6,0,6S106.3,50,102.44,50Z"/><path class="cls-4" d="M59.54,47.27c-3.86,0-3.86,6,0,6S63.41,47.27,59.54,47.27Z"/><path class="cls-4" d="M33,81c-3.86,0-3.87,6,0,6S36.86,81,33,81Z"/><path class="cls-4" d="M35.71,92.2c-3.86,0-3.86,6,0,6S39.58,92.2,35.71,92.2Z"/><path class="cls-4" d="M55.46,53a1,1,0,0,0,0,2A1,1,0,0,0,55.46,53Z"/><path class="cls-4" d="M108.22,49.27a1,1,0,0,0,0,2A1,1,0,0,0,108.22,49.27Z"/><path class="cls-4" d="M100.05,46.54a1,1,0,0,0,0,2A1,1,0,0,0,100.05,46.54Z"/><path class="cls-4" d="M96,74.8a1,1,0,0,0,0,2A1,1,0,0,0,96,74.8Z"/><path class="cls-4" d="M91.88,77.18a1,1,0,0,0,0,2A1,1,0,0,0,91.88,77.18Z"/><path class="cls-4" d="M92.9,73.1a1,1,0,0,0,0,2A1,1,0,0,0,92.9,73.1Z"/><path class="cls-4" d="M32.31,77.18a1,1,0,0,0,0,2A1,1,0,0,0,32.31,77.18Z"/><path class="cls-4" d="M38.78,88.76a1,1,0,0,0,0,2A1,1,0,0,0,38.78,88.76Z"/><path class="cls-4" d="M40.14,91.48a1,1,0,0,0,0,2A1,1,0,0,0,40.14,91.48Z"/><path class="cls-4" d="M41.5,87.39a1,1,0,0,0,0,2A1,1,0,0,0,41.5,87.39Z"/><path class="cls-4" d="M47.63,121.44a1,1,0,0,0,0,2A1,1,0,0,0,47.63,121.44Z"/><path class="cls-4" d="M45.93,117.35a1,1,0,0,0,0,2A1,1,0,0,0,45.93,117.35Z"/><path class="cls-4" d="M42.86,120.41a1,1,0,0,0,0,2A1,1,0,0,0,42.86,120.41Z"/><path class="cls-4" d="M41.84,110.54a1,1,0,0,0,0,2A1,1,0,0,0,41.84,110.54Z"/><path class="cls-5" d="M169.16,61.86a1,1,0,0,0,0,2A1,1,0,0,0,169.16,61.86Z"/><path class="cls-5" d="M172.56,42.8a1,1,0,0,0,0,2A1,1,0,0,0,172.56,42.8Z"/><path class="cls-5" d="M175.63,43.48a1,1,0,0,0,0,2A1,1,0,0,0,175.63,43.48Z"/><path class="cls-5" d="M133.41,53a1,1,0,0,0,0,2A1,1,0,0,0,133.41,53Z"/><path class="cls-5" d="M133.07,58.12a1,1,0,0,0,0,2A1,1,0,0,0,133.07,58.12Z"/><path class="cls-5" d="M192.31,90.12a1,1,0,0,0,0,2A1,1,0,0,0,192.31,90.12Z"/><path class="cls-5" d="M199.46,88.76a1,1,0,0,0,0,2A1,1,0,0,0,199.46,88.76Z"/><path class="cls-5" d="M198.78,94.2a1,1,0,0,0,0,2A1,1,0,0,0,198.78,94.2Z"/><path class="cls-5" d="M203.88,92.16a1,1,0,0,0,0,2A1,1,0,0,0,203.88,92.16Z"/><path class="cls-5" d="M109.5,41.61a1,1,0,0,0,0,2A1,1,0,0,0,109.5,41.61Z"/><path class="cls-6" d="M115.18,155.71c-.83-3-3.62-5.42-5.72-7.54a50.65,50.65,0,0,0-13.56-9.63A63.35,63.35,0,0,0,68,126.62c-5.75-1-12.35-1.14-18.36,1.58-3.1,1.41-6,3.43-7,6.6s.3,6.39,1.46,9c5.17,11.59,18.07,16.76,30.67,20.2,10.78,2.93,23.69,5.67,35.72-.14C114.09,162.12,116.1,159,115.18,155.71Z"/><path class="cls-6" d="M28.32,136.77c1.33-.65,2.07-2.25,2.76-3.48a21.68,21.68,0,0,0,2.49-7.64,30.14,30.14,0,0,0,1.22-15.11A18.94,18.94,0,0,0,31,101.32c-1.21-1.47-2.69-2.81-4.41-3a5.77,5.77,0,0,0-4.19,1.43c-4.84,3.52-5.24,10.48-4.83,17.15.35,5.71,1.14,12.49,6,18.16C25,136.71,26.85,137.5,28.32,136.77Z"/><path class="cls-6" d="M249.38,125.77c-2.49-1.83-6.19-2-9.15-2.41a50.66,50.66,0,0,0-16.61.78A63.28,63.28,0,0,0,194.31,132c-5.14,2.77-10.43,6.71-13.49,12.57-1.57,3-2.64,6.42-1.43,9.5s4.18,4.85,6.7,6.18c11.22,5.94,24.57,2.06,36.6-3,10.29-4.34,22.15-10.14,28-22.13C252.48,131.49,252.14,127.8,249.38,125.77Z"/><ellipse class="cls-7" cx="148" cy="89" rx="143" ry="84"/><path class="cls-5" d="M101.59,50.8a1,1,0,0,0,0,2A1,1,0,0,0,101.59,50.8Z"/><path class="cls-5" d="M59.2,47.73a1,1,0,0,0,0,2A1,1,0,0,0,59.2,47.73Z"/><path class="cls-5" d="M33.16,82a1,1,0,0,0,0,2A1,1,0,0,0,33.16,82Z"/><path class="cls-5" d="M35.2,92.67a1,1,0,0,0,0,2A1,1,0,0,0,35.2,92.67Z"/><path class="cls-5" d="M74,71.22a1,1,0,0,0,0,2A1,1,0,0,0,74,71.22Z"/><path class="cls-5" d="M73,66.37a1,1,0,0,0,0,2A1,1,0,0,0,73,66.37Z"/><path class="cls-5" d="M76.82,67.14a1,1,0,0,0,0,2A1,1,0,0,0,76.82,67.14Z"/><path class="cls-5" d="M98,95.61c-3.86,0-3.87,6,0,6S101.88,95.61,98,95.61Z"/><path class="cls-5" d="M225.67,57.14c-3.86,0-3.87,6,0,6S229.54,57.14,225.67,57.14Z"/><path class="cls-5" d="M228.39,131.69c-3.86,0-3.86,6,0,6S232.26,131.69,228.39,131.69Z"/><path class="cls-5" d="M253.59,85.39c-3.87,0-3.87,6,0,6S257.45,85.39,253.59,85.39Z"/><path class="cls-5" d="M254.27,96.63c-3.86,0-3.87,6,0,6S258.13,96.63,254.27,96.63Z"/><path class="cls-5" d="M139.54,41.14c-3.86,0-3.86,6,0,6S143.41,41.14,139.54,41.14Z"/><path class="cls-5" d="M146.69,42a1.5,1.5,0,0,0,0,3A1.5,1.5,0,0,0,146.69,42Z"/><path class="cls-5" d="M219.88,58a1.5,1.5,0,0,0,0,3A1.5,1.5,0,0,0,219.88,58Z"/><path class="cls-5" d="M259,90a1.5,1.5,0,0,0,0,3A1.5,1.5,0,0,0,259,90Z"/><path class="cls-5" d="M228.73,127.4a1.5,1.5,0,0,0,0,3A1.5,1.5,0,0,0,228.73,127.4Z"/><path class="cls-5" d="M223,129.79a1.5,1.5,0,0,0,0,3A1.5,1.5,0,0,0,223,129.79Z"/><path class="cls-5" d="M221.93,135.23a1.5,1.5,0,0,0,0,3A1.5,1.5,0,0,0,221.93,135.23Z"/><path class="cls-5" d="M177.67,100.44c-7.72,0-7.73,12,0,12S185.4,100.44,177.67,100.44Z"/><path class="cls-5" d="M81.67,129.54c-7.72,0-7.73,12,0,12S89.4,129.54,81.67,129.54Z"/><path class="cls-5" d="M77.59,126.54a1,1,0,0,0,0,2A1,1,0,0,0,77.59,126.54Z"/><path class="cls-5" d="M171.37,99.48a1,1,0,0,0,0,2A1,1,0,0,0,171.37,99.48Z"/><path class="cls-5" d="M170,103.39a1,1,0,0,0,0,2A1,1,0,0,0,170,103.39Z"/><path class="cls-5" d="M168,100.67a1,1,0,0,0,0,2A1,1,0,0,0,168,100.67Z"/><path class="cls-5" d="M103.63,95.9a1,1,0,0,0,0,2A1,1,0,0,0,103.63,95.9Z"/><path class="cls-8" d="M103.12,101.35a1,1,0,0,0,0,2A1,1,0,0,0,103.12,101.35Z"/><path class="cls-8" d="M127.29,89.78a1,1,0,0,0,0,2A1,1,0,0,0,127.29,89.78Z"/><path class="cls-8" d="M131.37,87.73a1,1,0,0,0,0,2A1,1,0,0,0,131.37,87.73Z"/><path class="cls-8" d="M131.71,91.14a1,1,0,0,0,0,2A1,1,0,0,0,131.71,91.14Z"/><path class="cls-8" d="M129.33,135.73a1,1,0,0,0,0,2A1,1,0,0,0,129.33,135.73Z"/><path class="cls-8" d="M125.24,135.39a1,1,0,0,0,0,2A1,1,0,0,0,125.24,135.39Z"/><path class="cls-8" d="M120.14,134a1,1,0,0,0,0,2A1,1,0,0,0,120.14,134Z"/><path class="cls-9" d="M55.46,88.12c-3.86,0-3.87,6,0,6S59.32,88.12,55.46,88.12Z"/><path class="cls-9" d="M125.93,80.29c-3.87,0-3.87,6,0,6S129.79,80.29,125.93,80.29Z"/><path class="cls-9" d="M181.41,70.07c-3.86,0-3.86,6,0,6S185.28,70.07,181.41,70.07Z"/><path class="cls-10" d="M125.33,82a1,1,0,0,0,0,2A1,1,0,0,0,125.33,82Z"/><path class="cls-10" d="M54.86,88.84a1,1,0,0,0,0,2A1,1,0,0,0,54.86,88.84Z"/><path class="cls-10" d="M56.65,90.88a1,1,0,0,0,0,2A1,1,0,0,0,56.65,90.88Z"/><path class="cls-10" d="M181.24,71.48a1,1,0,0,0,0,2A1,1,0,0,0,181.24,71.48Z"/><path class="cls-11" d="M230.78,293.48c-9,0-9,14,0,14S239.8,293.48,230.78,293.48Z"/><path class="cls-11" d="M206.78,346.59c-9,0-9,14,0,14S215.8,346.59,206.78,346.59Z"/><path class="cls-11" d="M222.1,276.56c-5.15,0-5.16,8,0,8S227.25,276.56,222.1,276.56Z"/><path class="cls-12" d="M229.24,296.44c-2.57,0-2.57,4,0,4S231.82,296.44,229.24,296.44Z"/><path class="cls-12" d="M204.73,349c-2.57,0-2.57,4,0,4S207.31,349,204.73,349Z"/><path class="cls-12" d="M211.37,339.84c-2.57,0-2.58,4,0,4S214,339.84,211.37,339.84Z"/><path class="cls-12" d="M217.5,287.24c-2.57,0-2.58,4,0,4S220.08,287.24,217.5,287.24Z"/><path class="cls-12" d="M196.31,344.18c-2.58,0-2.58,4,0,4S198.89,344.18,196.31,344.18Z"/><path class="cls-12" d="M223.35,383.09c-1.81-.46-4,0-5.8.35a35.43,35.43,0,0,0-9.51,3.09,40.38,40.38,0,0,0-15.48,8.52c-2.43,2.16-4.73,4.9-5.33,8.19-.31,1.7-.25,3.49,1.06,4.76s3.4,1.63,5.13,1.85c7.72,1,14.7-3,20.69-7.42C219.23,398.68,225,394,226,387.3A3.5,3.5,0,0,0,223.35,383.09Z"/></g></g></svg>