<svg xmlns="http://www.w3.org/2000/svg" viewBox="0 0 91.64 124.13"><defs><style>.cls-1{fill:#a67b5b;}.cls-2{fill:#dfecff;opacity:0.4;}.cls-3{fill:#90aeb8;}.cls-3,.cls-4{opacity:0.3;}.cls-4{fill:#ffe3ff;}.cls-5,.cls-6{fill:#fff;}.cls-5{opacity:0.6;}</style></defs><g id="Слой_2" data-name="Слой 2"><g id="Слой_5" data-name="Слой 5"><polyline class="cls-1" points="12.73 12 82.43 12 65.83 104 26.51 104 12.73 12"/><path class="cls-2" d="M41.55,124H22s-2.38-.48-3.09-3.74S0,4.09,0,4.09-.24,0,2.49,0H89.07s3.15.28,2.48,4.09S72.63,120.26,72.63,120.26s-.78,3.74-3.1,3.74Z"/><path class="cls-3" d="M70.25.13H89.11s2.82.19,2.48,4.09S72.67,120.39,72.67,120.39s-.77,3.74-3.09,3.74H50.05Z"/><path class="cls-4" d="M21.73.13H2.86S.05.32.38,4.22,19.3,120.39,19.3,120.39s.78,3.74,3.09,3.74H41.93Z"/><rect class="cls-5" x="18.36" y="22.83" width="15.26" height="7.38" rx="3.69"/><rect class="cls-5" x="23.01" y="35.79" width="7.38" height="7.38" rx="3.69"/><rect class="cls-6" x="20.73" y="24.61" width="4" height="4" rx="2"/></g></g></svg>