<svg xmlns="http://www.w3.org/2000/svg" xmlns:xlink="http://www.w3.org/1999/xlink" viewBox="0 0 296 450.05"><defs><style>.cls-1{fill:url(#Безымянный_градиент_368);}.cls-2{fill:url(#Безымянный_градиент_81);}.cls-3{fill:none;stroke:#e6e6e6;stroke-miterlimit:10;stroke-width:10px;}.cls-4{fill:#7f7f7f;}.cls-4,.cls-5{opacity:0.5;}.cls-5{fill:#aaa;}</style><linearGradient id="Безымянный_градиент_368" x1="299.42" y1="89.83" x2="4.61" y2="88.5" gradientUnits="userSpaceOnUse"><stop offset="0.04" stop-color="#564f56"/><stop offset="0.05" stop-color="#585158"/><stop offset="0.21" stop-color="#8f8b8f"/><stop offset="0.35" stop-color="#b8b6b8"/><stop offset="0.46" stop-color="#d1d0d1"/><stop offset="0.52" stop-color="#dadada"/><stop offset="0.58" stop-color="#d5d4d4"/><stop offset="0.67" stop-color="#c6c3c3"/><stop offset="0.76" stop-color="#ada8a8"/><stop offset="0.87" stop-color="#8b8181"/><stop offset="0.98" stop-color="#605050"/><stop offset="1" stop-color="#564545"/></linearGradient><linearGradient id="Безымянный_градиент_81" x1="4.5" y1="276.27" x2="291.5" y2="276.27" gradientUnits="userSpaceOnUse"><stop offset="0" stop-color="#b0b0ae"/><stop offset="0.53" stop-color="#343436"/><stop offset="1"/></linearGradient></defs><g id="Слой_2" data-name="Слой 2"><g id="ПУСТАЯ"><path class="cls-1" d="M15,167l268,7c1.31-3.56,12.46-71.7-1-114C275,38,188,3,157.12,5,132.15,6.69,23,18,11,64-.83,109.35,9.78,153.55,15,167Z"/><path class="cls-2" d="M291.5,102.5,262,382s-8,66-115,68S22,387.8,22,387.8L4.5,105.5s22,69.09,143,68C258.5,172.5,291.5,102.5,291.5,102.5Z"/><ellipse class="cls-3" cx="148" cy="89" rx="143" ry="84"/><path class="cls-4" d="M230.78,293.48c-9,0-9,14,0,14S239.8,293.48,230.78,293.48Z"/><path class="cls-4" d="M206.78,346.59c-9,0-9,14,0,14S215.8,346.59,206.78,346.59Z"/><path class="cls-4" d="M222.1,276.56c-5.15,0-5.16,8,0,8S227.25,276.56,222.1,276.56Z"/><path class="cls-5" d="M229.24,296.44c-2.57,0-2.57,4,0,4S231.82,296.44,229.24,296.44Z"/><path class="cls-5" d="M204.73,349c-2.57,0-2.57,4,0,4S207.31,349,204.73,349Z"/><path class="cls-5" d="M217.5,287.24c-2.57,0-2.58,4,0,4S220.08,287.24,217.5,287.24Z"/><path class="cls-5" d="M196.31,344.18c-2.58,0-2.58,4,0,4S198.89,344.18,196.31,344.18Z"/><path class="cls-5" d="M223.35,383.09c-1.81-.46-4,0-5.8.35a35.43,35.43,0,0,0-9.51,3.09,40.38,40.38,0,0,0-15.48,8.52c-2.43,2.16-4.73,4.9-5.33,8.19-.31,1.7-.25,3.49,1.06,4.76s3.4,1.63,5.13,1.85c7.72,1,14.7-3,20.69-7.42C219.23,398.68,225,394,226,387.3A3.5,3.5,0,0,0,223.35,383.09Z"/><path class="cls-5" d="M211.37,339.84c-2.57,0-2.58,4,0,4S214,339.84,211.37,339.84Z"/></g></g></svg>