<svg xmlns="http://www.w3.org/2000/svg" viewBox="0 0 91.29 143"><defs><style>.cls-1{fill:#dfd2c2;}.cls-2{fill:#a67b5b;}.cls-3{fill:#dfecff;opacity:0.4;}.cls-4,.cls-7{fill:#fff;}.cls-5{fill:#90aeb8;}.cls-5,.cls-6{opacity:0.3;}.cls-6{fill:#ffe3ff;}.cls-7{opacity:0.6;}</style></defs><g id="Слой_2" data-name="Слой 2"><g id="Слой_2-2" data-name="Слой 2"><polyline class="cls-1" points="12.37 11 13.97 23.94 26.16 122.87 65.48 122.87 82.08 11 12.37 11"/><polygon class="cls-2" points="65.48 122.87 72.21 77.5 20.57 77.5 26.16 122.87 65.48 122.87"/><path class="cls-3" d="M41.44,142.87H22s-2.37-.55-3.08-4.31S.09,4.72.09,4.72-.16,0,2.56,0H88.73s3.13.32,2.47,4.72S72.36,138.56,72.36,138.56s-.77,4.31-3.07,4.31Z"/><polygon class="cls-4" points="12.37 10.91 15.66 37.68 78.12 37.68 82.08 10.91 12.37 10.91"/><path class="cls-5" d="M69.89,0H88.76s2.81.22,2.48,4.72-18.92,134-18.92,134S71.55,143,69.23,143H49.69Z"/><path class="cls-6" d="M21.37,0H2.51S-.31.22,0,4.72,19,138.69,19,138.69,19.72,143,22,143H41.57Z"/><rect class="cls-7" x="18" y="41.7" width="15.26" height="7.38" rx="3.69"/><rect class="cls-7" x="22.66" y="54.67" width="7.38" height="7.38" rx="3.69"/><rect class="cls-4" x="20.38" y="43.48" width="4" height="4" rx="2"/></g></g></svg>