<svg xmlns="http://www.w3.org/2000/svg" xmlns:xlink="http://www.w3.org/1999/xlink" viewBox="0 0 296 470.85"><defs><style>.cls-1,.cls-16{stroke-miterlimit:10;}.cls-1{fill:url(#Безымянный_градиент_368);stroke:url(#Безымянный_градиент);}.cls-2{fill:url(#Безымянный_градиент_322);}.cls-3{fill:url(#Безымянный_градиент_81);}.cls-4{fill:#eab4a9;}.cls-5{opacity:0.6;}.cls-6,.cls-8{opacity:0.9;}.cls-7{fill:#f3d9d8;}.cls-8{fill:#e09c99;}.cls-9{fill:#e6b1af;}.cls-10{fill:#edc6c5;}.cls-11{fill:#f8e9e8;}.cls-12,.cls-16{fill:none;}.cls-12{stroke:#ecc1c0;stroke-width:0;}.cls-13{fill:#fdf8f8;}.cls-14,.cls-17{fill:#eae2ce;}.cls-15{fill:#563133;}.cls-15,.cls-17,.cls-19,.cls-20,.cls-21,.cls-35{opacity:0.5;}.cls-16{stroke:#e6e6e6;stroke-width:10px;}.cls-18,.cls-19{fill:#ffe6d9;}.cls-18{opacity:0.3;}.cls-20,.cls-22{fill:#aaa;}.cls-21{fill:#7f7f7f;}.cls-23{fill:#5e382f;}.cls-23,.cls-24,.cls-33,.cls-34,.cls-36{opacity:0.3;}.cls-24,.cls-25{fill:#65443d;}.cls-25{opacity:0.8;}.cls-26{fill:url(#Безымянный_градиент_93);}.cls-27{fill:url(#Безымянный_градиент_84);}.cls-28{fill:url(#Безымянный_градиент_89);}.cls-29{fill:url(#Безымянный_градиент_71);}.cls-30{fill:url(#Безымянный_градиент_71-2);}.cls-31{fill:url(#Безымянный_градиент_71-3);}.cls-32{fill:url(#Безымянный_градиент_71-4);}.cls-33{fill:#4a4c3b;}.cls-34{fill:#312e2c;}.cls-35,.cls-36{fill:#f0e7d9;}.cls-37{fill:url(#Безымянный_градиент_93-2);}.cls-38{fill:url(#Безымянный_градиент_84-2);}.cls-39{fill:url(#Безымянный_градиент_89-2);}.cls-40{fill:url(#Безымянный_градиент_71-5);}.cls-41{fill:url(#Безымянный_градиент_71-6);}.cls-42{fill:url(#Безымянный_градиент_71-7);}.cls-43{fill:url(#Безымянный_градиент_71-8);}.cls-44{fill:url(#Безымянный_градиент_93-3);}.cls-45{fill:url(#Безымянный_градиент_84-3);}.cls-46{fill:url(#Безымянный_градиент_89-3);}.cls-47{fill:url(#Безымянный_градиент_71-9);}.cls-48{fill:url(#Безымянный_градиент_71-10);}.cls-49{fill:url(#Безымянный_градиент_71-11);}.cls-50{fill:url(#Безымянный_градиент_71-12);}.cls-51{fill:url(#Безымянный_градиент_93-4);}.cls-52{fill:url(#Безымянный_градиент_89-4);}.cls-53{fill:url(#Безымянный_градиент_84-4);}.cls-54{fill:url(#Безымянный_градиент_89-5);}.cls-55{fill:url(#Безымянный_градиент_71-13);}.cls-56{fill:url(#Безымянный_градиент_71-14);}.cls-57{fill:url(#Безымянный_градиент_71-15);}.cls-58{fill:url(#Безымянный_градиент_93-5);}.cls-59{fill:url(#Безымянный_градиент_89-6);}.cls-60{fill:url(#Безымянный_градиент_84-5);}.cls-61{fill:url(#Безымянный_градиент_89-7);}.cls-62{fill:url(#Безымянный_градиент_71-16);}.cls-63{fill:url(#Безымянный_градиент_71-17);}.cls-64{fill:url(#Безымянный_градиент_71-18);}.cls-65{fill:url(#Безымянный_градиент_93-6);}.cls-66{fill:url(#Безымянный_градиент_89-8);}.cls-67{fill:url(#Безымянный_градиент_84-6);}.cls-68{fill:url(#Безымянный_градиент_89-9);}.cls-69{fill:url(#Безымянный_градиент_71-19);}.cls-70{fill:url(#Безымянный_градиент_71-20);}.cls-71{fill:url(#Безымянный_градиент_71-21);}.cls-72{fill:url(#Безымянный_градиент_93-7);}.cls-73{fill:url(#Безымянный_градиент_84-7);}.cls-74{fill:url(#Безымянный_градиент_89-10);}.cls-75{fill:url(#Безымянный_градиент_71-22);}.cls-76{fill:url(#Безымянный_градиент_71-23);}.cls-77{fill:url(#Безымянный_градиент_71-24);}.cls-78{fill:url(#Безымянный_градиент_71-25);}.cls-79{fill:url(#Безымянный_градиент_93-8);}.cls-80{fill:url(#Безымянный_градиент_89-11);}.cls-81{fill:url(#Безымянный_градиент_84-8);}.cls-82{fill:url(#Безымянный_градиент_89-12);}.cls-83{fill:url(#Безымянный_градиент_71-26);}.cls-84{fill:url(#Безымянный_градиент_71-27);}.cls-85{fill:url(#Безымянный_градиент_71-28);}.cls-86{fill:url(#Безымянный_градиент_93-9);}.cls-87{fill:url(#Безымянный_градиент_89-13);}.cls-88{fill:url(#Безымянный_градиент_84-9);}.cls-89{fill:url(#Безымянный_градиент_89-14);}.cls-90{fill:url(#Безымянный_градиент_71-29);}.cls-91{fill:url(#Безымянный_градиент_93-10);}.cls-92{fill:url(#Безымянный_градиент_84-10);}.cls-93{fill:url(#Безымянный_градиент_89-15);}.cls-94{fill:url(#Безымянный_градиент_71-30);}.cls-95{fill:url(#Безымянный_градиент_71-31);}.cls-96{fill:url(#Безымянный_градиент_71-32);}.cls-97{fill:url(#Безымянный_градиент_71-33);}.cls-98{fill:url(#Безымянный_градиент_71-34);}</style><linearGradient id="Безымянный_градиент_368" x1="300.96" y1="54.01" x2="5.95" y2="52.68" gradientUnits="userSpaceOnUse"><stop offset="0.04" stop-color="#564f56"/><stop offset="0.05" stop-color="#585158"/><stop offset="0.21" stop-color="#8f8b8f"/><stop offset="0.35" stop-color="#b8b6b8"/><stop offset="0.46" stop-color="#d1d0d1"/><stop offset="0.52" stop-color="#dadada"/><stop offset="0.58" stop-color="#d5d4d4"/><stop offset="0.67" stop-color="#c6c3c3"/><stop offset="0.76" stop-color="#ada8a8"/><stop offset="0.87" stop-color="#8b8181"/><stop offset="0.98" stop-color="#605050"/><stop offset="1" stop-color="#564545"/></linearGradient><linearGradient id="Безымянный_градиент" x1="6.35" y1="52.99" x2="290.53" y2="52.99" gradientUnits="userSpaceOnUse"><stop offset="0" stop-color="#fff"/><stop offset="1"/></linearGradient><linearGradient id="Безымянный_градиент_322" x1="188.33" y1="17.3" x2="107.77" y2="196.45" gradientUnits="userSpaceOnUse"><stop offset="0" stop-color="#f6a995"/><stop offset="0.12" stop-color="#efa491"/><stop offset="0.3" stop-color="#db9585"/><stop offset="0.51" stop-color="#bc7d71"/><stop offset="0.74" stop-color="#8f5c56"/><stop offset="1" stop-color="#573233"/><stop offset="1" stop-color="#563133"/></linearGradient><linearGradient id="Безымянный_градиент_81" x1="4.5" y1="276.27" x2="291.5" y2="276.27" gradientUnits="userSpaceOnUse"><stop offset="0" stop-color="#b0b0ae"/><stop offset="0.53" stop-color="#343436"/><stop offset="1"/></linearGradient><linearGradient id="Безымянный_градиент_93" x1="78.14" y1="77.1" x2="104.76" y2="77.1" gradientTransform="translate(14.67 -42.67) rotate(25.47)" gradientUnits="userSpaceOnUse"><stop offset="0" stop-color="#e58690"/><stop offset="0.04" stop-color="#de7c85"/><stop offset="0.16" stop-color="#ce636d"/><stop offset="0.29" stop-color="#c2505a"/><stop offset="0.44" stop-color="#ba434c"/><stop offset="0.64" stop-color="#b43b44"/><stop offset="1" stop-color="#b33942"/></linearGradient><linearGradient id="Безымянный_градиент_84" x1="101.04" y1="89.01" x2="93.36" y2="53.52" gradientTransform="translate(14.67 -42.67) rotate(25.47)" gradientUnits="userSpaceOnUse"><stop offset="0" stop-color="#b33942"/><stop offset="1" stop-color="#fca9b3"/></linearGradient><linearGradient id="Безымянный_градиент_89" x1="85.84" y1="58.49" x2="82.08" y2="79.67" gradientTransform="translate(14.67 -42.67) rotate(25.47)" gradientUnits="userSpaceOnUse"><stop offset="0" stop-color="#e58690"/><stop offset="0.28" stop-color="#cf656e"/><stop offset="0.55" stop-color="#c04d56"/><stop offset="0.8" stop-color="#b63e47"/><stop offset="1" stop-color="#b33942"/></linearGradient><linearGradient id="Безымянный_градиент_71" x1="93.3" y1="103.96" x2="92.01" y2="73.07" gradientTransform="translate(14.67 -42.67) rotate(25.47)" gradientUnits="userSpaceOnUse"><stop offset="0" stop-color="#5e6837"/><stop offset="1" stop-color="#fceeb3"/></linearGradient><linearGradient id="Безымянный_градиент_71-2" x1="95.1" y1="102.34" x2="94.15" y2="79.72" xlink:href="#Безымянный_градиент_71"/><linearGradient id="Безымянный_градиент_71-3" x1="-5.86" y1="99.46" x2="-6.79" y2="77.23" gradientTransform="matrix(-0.9, -0.43, -0.43, 0.9, 89.76, -6.9)" xlink:href="#Безымянный_градиент_71"/><linearGradient id="Безымянный_градиент_71-4" x1="93.27" y1="106.06" x2="92.17" y2="79.75" xlink:href="#Безымянный_градиент_71"/><linearGradient id="Безымянный_градиент_93-2" x1="37.47" y1="93.9" x2="59.34" y2="93.9" gradientTransform="matrix(1, 0, 0, 1, 0, 0)" xlink:href="#Безымянный_градиент_93"/><linearGradient id="Безымянный_градиент_84-2" x1="56.06" y1="103.3" x2="49.99" y2="75.25" gradientTransform="matrix(1, 0, 0, 1, 0, 0)" xlink:href="#Безымянный_градиент_84"/><linearGradient id="Безымянный_градиент_89-2" x1="43.31" y1="79.27" x2="40.42" y2="95.52" gradientTransform="matrix(1, 0, 0, 1, 0, 0)" xlink:href="#Безымянный_градиент_89"/><linearGradient id="Безымянный_градиент_71-5" x1="49.95" y1="114.81" x2="48.92" y2="90.41" gradientTransform="matrix(1, 0, 0, 1, 0, 0)" xlink:href="#Безымянный_градиент_71"/><linearGradient id="Безымянный_градиент_71-6" x1="51.74" y1="113.46" x2="51.01" y2="96.05" gradientTransform="matrix(1, 0, 0, 1, 0, 0)" xlink:href="#Безымянный_градиент_71"/><linearGradient id="Безымянный_градиент_71-7" x1="36.44" y1="111.27" x2="35.71" y2="93.86" gradientTransform="matrix(-1, 0, 0, 1, 83.17, 0)" xlink:href="#Безымянный_градиент_71"/><linearGradient id="Безымянный_градиент_71-8" x1="50.04" y1="116.49" x2="49.16" y2="95.56" gradientTransform="matrix(1, 0, 0, 1, 0, 0)" xlink:href="#Безымянный_градиент_71"/><linearGradient id="Безымянный_градиент_93-3" x1="43.1" y1="116.45" x2="61.4" y2="116.45" gradientTransform="translate(-43.12 32.48) rotate(-22.46)" xlink:href="#Безымянный_градиент_93"/><linearGradient id="Безымянный_градиент_84-3" x1="58.61" y1="124.07" x2="53.68" y2="101.27" gradientTransform="translate(-43.12 32.48) rotate(-22.46)" xlink:href="#Безымянный_градиент_84"/><linearGradient id="Безымянный_градиент_89-3" x1="47.95" y1="104.56" x2="45.6" y2="117.77" gradientTransform="translate(-43.12 32.48) rotate(-22.46)" xlink:href="#Безымянный_градиент_89"/><linearGradient id="Безымянный_градиент_71-9" x1="53.53" y1="133.43" x2="52.69" y2="113.61" gradientTransform="translate(-43.12 32.48) rotate(-22.46)" xlink:href="#Безымянный_градиент_71"/><linearGradient id="Безымянный_градиент_71-10" x1="55.04" y1="132.33" x2="54.44" y2="118.2" gradientTransform="translate(-43.12 32.48) rotate(-22.46)" xlink:href="#Безымянный_градиент_71"/><linearGradient id="Безымянный_градиент_71-11" x1="32.32" y1="130.56" x2="31.73" y2="116.42" gradientTransform="matrix(-0.92, 0.38, 0.38, 0.92, 33.74, 0.7)" xlink:href="#Безымянный_градиент_71"/><linearGradient id="Безымянный_градиент_71-12" x1="53.6" y1="134.8" x2="52.89" y2="117.79" gradientTransform="translate(-43.12 32.48) rotate(-22.46)" xlink:href="#Безымянный_градиент_71"/><linearGradient id="Безымянный_градиент_93-4" x1="69.79" y1="133.22" x2="90.33" y2="133.22" gradientTransform="matrix(1, 0, 0, 1, 0, 0)" xlink:href="#Безымянный_градиент_93"/><linearGradient id="Безымянный_градиент_89-4" x1="76.81" y1="114.94" x2="72.99" y2="136.42" gradientTransform="matrix(1, 0, 0, 1, 0, 0)" xlink:href="#Безымянный_градиент_89"/><linearGradient id="Безымянный_градиент_84-4" x1="87.49" y1="142.94" x2="82.45" y2="119.67" gradientTransform="matrix(1, 0, 0, 1, 0, 0)" xlink:href="#Безымянный_градиент_84"/><linearGradient id="Безымянный_градиент_89-5" x1="79.63" y1="130.59" x2="76.74" y2="146.84" gradientTransform="matrix(1, 0, 0, 1, 0, 0)" xlink:href="#Безымянный_градиент_89"/><linearGradient id="Безымянный_градиент_71-13" x1="80.27" y1="154.14" x2="79.24" y2="129.74" gradientTransform="matrix(1, 0, 0, 1, 0, 0)" xlink:href="#Безымянный_градиент_71"/><linearGradient id="Безымянный_градиент_71-14" x1="82.06" y1="152.78" x2="81.33" y2="135.38" gradientTransform="matrix(1, 0, 0, 1, 0, 0)" xlink:href="#Безымянный_градиент_71"/><linearGradient id="Безымянный_градиент_71-15" x1="6.12" y1="150.6" x2="5.39" y2="133.19" gradientTransform="matrix(-1, 0, 0, 1, 83.17, 0)" xlink:href="#Безымянный_градиент_71"/><linearGradient id="Безымянный_градиент_93-5" x1="83.72" y1="39.37" x2="104.26" y2="39.37" gradientTransform="translate(43.57 -41.35) rotate(35)" xlink:href="#Безымянный_градиент_93"/><linearGradient id="Безымянный_градиент_89-6" x1="90.74" y1="21.09" x2="86.92" y2="42.57" gradientTransform="translate(43.57 -41.35) rotate(35)" xlink:href="#Безымянный_градиент_89"/><linearGradient id="Безымянный_градиент_84-5" x1="101.42" y1="49.09" x2="96.38" y2="25.82" gradientTransform="translate(43.57 -41.35) rotate(35)" xlink:href="#Безымянный_градиент_84"/><linearGradient id="Безымянный_градиент_89-7" x1="93.56" y1="36.74" x2="90.67" y2="52.99" gradientTransform="translate(43.57 -41.35) rotate(35)" xlink:href="#Безымянный_градиент_89"/><linearGradient id="Безымянный_градиент_71-16" x1="94.2" y1="60.29" x2="93.17" y2="35.89" gradientTransform="translate(43.57 -41.35) rotate(35)" xlink:href="#Безымянный_градиент_71"/><linearGradient id="Безымянный_градиент_71-17" x1="95.99" y1="58.93" x2="95.26" y2="41.53" gradientTransform="translate(43.57 -41.35) rotate(35)" xlink:href="#Безымянный_градиент_71"/><linearGradient id="Безымянный_градиент_71-18" x1="-7.81" y1="56.75" x2="-8.54" y2="39.34" gradientTransform="matrix(-0.82, -0.57, -0.57, 0.82, 111.7, 6.35)" xlink:href="#Безымянный_градиент_71"/><linearGradient id="Безымянный_градиент_93-6" x1="223.25" y1="424.39" x2="251.84" y2="424.39" gradientTransform="translate(163.49 -55.24) rotate(20.27)" xlink:href="#Безымянный_градиент_93"/><linearGradient id="Безымянный_градиент_89-8" x1="233.12" y1="399.62" x2="227.93" y2="428.88" gradientTransform="translate(163.49 -55.24) rotate(20.27)" xlink:href="#Безымянный_градиент_89"/><linearGradient id="Безымянный_градиент_84-6" x1="247.86" y1="437.45" x2="241.07" y2="406.06" gradientTransform="translate(163.49 -55.24) rotate(20.27)" xlink:href="#Безымянный_градиент_84"/><linearGradient id="Безымянный_градиент_89-9" x1="236.85" y1="420.8" x2="232.92" y2="442.92" gradientTransform="translate(163.49 -55.24) rotate(20.27)" xlink:href="#Безымянный_градиент_89"/><linearGradient id="Безымянный_градиент_71-19" x1="237.78" y1="452.7" x2="236.4" y2="419.83" gradientTransform="translate(163.49 -55.24) rotate(20.27)" xlink:href="#Безымянный_градиент_71"/><linearGradient id="Безымянный_градиент_71-20" x1="240.16" y1="450.9" x2="239.17" y2="427.28" gradientTransform="translate(163.49 -55.24) rotate(20.27)" xlink:href="#Безымянный_градиент_71"/><linearGradient id="Безымянный_градиент_71-21" x1="-150.06" y1="447.92" x2="-151.04" y2="424.43" gradientTransform="matrix(-0.94, -0.35, -0.35, 0.94, 241.51, -26.42)" xlink:href="#Безымянный_градиент_71"/><linearGradient id="Безымянный_градиент_93-7" x1="73.62" y1="475.05" x2="91.93" y2="475.05" gradientTransform="translate(-43.12 32.48) rotate(-22.46)" xlink:href="#Безымянный_градиент_93"/><linearGradient id="Безымянный_градиент_84-7" x1="89.13" y1="482.68" x2="84.2" y2="459.87" gradientTransform="translate(-43.12 32.48) rotate(-22.46)" xlink:href="#Безымянный_градиент_84"/><linearGradient id="Безымянный_градиент_89-10" x1="78.47" y1="463.16" x2="76.12" y2="476.37" gradientTransform="translate(-43.12 32.48) rotate(-22.46)" xlink:href="#Безымянный_градиент_89"/><linearGradient id="Безымянный_градиент_71-22" x1="84.05" y1="492.04" x2="83.22" y2="472.21" gradientTransform="translate(-43.12 32.48) rotate(-22.46)" xlink:href="#Безымянный_градиент_71"/><linearGradient id="Безымянный_градиент_71-23" x1="85.56" y1="490.93" x2="84.97" y2="476.8" gradientTransform="translate(-43.12 32.48) rotate(-22.46)" xlink:href="#Безымянный_градиент_71"/><linearGradient id="Безымянный_градиент_71-24" x1="1.8" y1="489.16" x2="1.2" y2="475.03" gradientTransform="matrix(-0.92, 0.38, 0.38, 0.92, 33.74, 0.7)" xlink:href="#Безымянный_градиент_71"/><linearGradient id="Безымянный_градиент_71-25" x1="84.13" y1="493.4" x2="83.41" y2="476.39" gradientTransform="translate(-43.12 32.48) rotate(-22.46)" xlink:href="#Безымянный_градиент_71"/><linearGradient id="Безымянный_градиент_93-8" x1="368.6" y1="351.27" x2="389.15" y2="351.27" gradientTransform="translate(-261.29 729.15) rotate(-75.41)" xlink:href="#Безымянный_градиент_93"/><linearGradient id="Безымянный_градиент_89-11" x1="375.62" y1="332.99" x2="371.81" y2="354.46" gradientTransform="translate(-261.29 729.15) rotate(-75.41)" xlink:href="#Безымянный_градиент_89"/><linearGradient id="Безымянный_градиент_84-8" x1="386.3" y1="360.99" x2="381.26" y2="337.71" gradientTransform="translate(-261.29 729.15) rotate(-75.41)" xlink:href="#Безымянный_градиент_84"/><linearGradient id="Безымянный_градиент_89-12" x1="378.44" y1="348.64" x2="375.56" y2="364.89" gradientTransform="translate(-261.29 729.15) rotate(-75.41)" xlink:href="#Безымянный_градиент_89"/><linearGradient id="Безымянный_градиент_71-26" x1="379.08" y1="372.18" x2="378.06" y2="347.78" gradientTransform="translate(-261.29 729.15) rotate(-75.41)" xlink:href="#Безымянный_градиент_71"/><linearGradient id="Безымянный_градиент_71-27" x1="380.88" y1="370.83" x2="380.15" y2="353.42" gradientTransform="translate(-261.29 729.15) rotate(-75.41)" xlink:href="#Безымянный_градиент_71"/><linearGradient id="Безымянный_градиент_71-28" x1="-292.69" y1="368.64" x2="-293.42" y2="351.24" gradientTransform="matrix(-0.25, 0.97, 0.97, 0.25, -240.35, 648.66)" xlink:href="#Безымянный_градиент_71"/><linearGradient id="Безымянный_градиент_93-9" x1="366.57" y1="207.86" x2="395.69" y2="207.86" gradientTransform="translate(-398.35 417.81) rotate(-29.35)" xlink:href="#Безымянный_градиент_93"/><linearGradient id="Безымянный_градиент_89-13" x1="375.59" y1="180.58" x2="370.05" y2="211.77" gradientTransform="matrix(0.87, -0.49, 0.7, 1.24, -436.32, 350.28)" xlink:href="#Безымянный_градиент_89"/><linearGradient id="Безымянный_градиент_84-9" x1="391.75" y1="221.92" x2="384.46" y2="188.22" gradientTransform="translate(-398.35 417.81) rotate(-29.35)" xlink:href="#Безымянный_градиент_84"/><linearGradient id="Безымянный_градиент_89-14" x1="380.53" y1="204" x2="376.29" y2="227.9" gradientTransform="translate(-398.35 417.81) rotate(-29.35)" xlink:href="#Безымянный_градиент_89"/><linearGradient id="Безымянный_градиент_71-29" x1="-281.45" y1="226.42" x2="-282.18" y2="209.02" gradientTransform="matrix(-0.25, 0.97, 0.97, 0.25, -240.35, 648.66)" xlink:href="#Безымянный_градиент_71"/><linearGradient id="Безымянный_градиент_93-10" x1="51.8" y1="428.98" x2="73.68" y2="428.98" gradientTransform="translate(156.19 5.79) rotate(20.13)" xlink:href="#Безымянный_градиент_93"/><linearGradient id="Безымянный_градиент_84-10" x1="70.39" y1="438.38" x2="64.32" y2="410.34" gradientTransform="translate(156.19 5.79) rotate(20.13)" xlink:href="#Безымянный_градиент_84"/><linearGradient id="Безымянный_градиент_89-15" x1="57.65" y1="414.35" x2="54.76" y2="430.6" gradientTransform="translate(156.19 5.79) rotate(20.13)" xlink:href="#Безымянный_градиент_89"/><linearGradient id="Безымянный_градиент_71-30" x1="64.28" y1="449.9" x2="63.26" y2="425.5" gradientTransform="translate(156.19 5.79) rotate(20.13)" xlink:href="#Безымянный_градиент_71"/><linearGradient id="Безымянный_градиент_71-31" x1="66.08" y1="448.54" x2="65.35" y2="431.14" gradientTransform="translate(156.19 5.79) rotate(20.13)" xlink:href="#Безымянный_градиент_71"/><linearGradient id="Безымянный_градиент_71-32" x1="22.11" y1="446.36" x2="21.38" y2="428.95" gradientTransform="matrix(-0.94, -0.34, -0.34, 0.94, 234.29, 34.41)" xlink:href="#Безымянный_градиент_71"/><linearGradient id="Безымянный_градиент_71-33" x1="64.37" y1="451.58" x2="63.5" y2="430.65" gradientTransform="translate(156.19 5.79) rotate(20.13)" xlink:href="#Безымянный_градиент_71"/><linearGradient id="Безымянный_градиент_71-34" x1="-508.2" y1="348.2" x2="-508.93" y2="330.8" gradientTransform="matrix(1.13, -0.4, 0.48, 1.38, 461.24, -251.94)" xlink:href="#Безымянный_градиент_71"/></defs><g id="Слой_2" data-name="Слой 2"><g id="Слой_2-2" data-name="Слой 2"><path class="cls-1" d="M7,101l283-4S295.57,6.9,146.12,5,7,101,7,101Z"/><ellipse class="cls-2" cx="147.75" cy="107.54" rx="141.25" ry="86.96"/><path class="cls-3" d="M291.5,102.5,262,382s-8,66-115,68S22,387.8,22,387.8L4.5,105.5s22,69.09,143,68C258.5,172.5,291.5,102.5,291.5,102.5Z"/><path class="cls-4" d="M113.16,43a2.94,2.94,0,0,0-.77-1.32l-.61-.47a3,3,0,0,0-1.51-.41h-.34a2.2,2.2,0,0,0-1.16.26,2.7,2.7,0,0,0-1.59,1.58,2.29,2.29,0,0,0-.25,1.16c0,.26.07.53.1.8a3.15,3.15,0,0,0,.77,1.32l.61.47a3,3,0,0,0,1.52.41h.34a3.38,3.38,0,0,0,2.12-.88,2.22,2.22,0,0,0,.62-1,2.26,2.26,0,0,0,.26-1.15Z"/><path class="cls-4" d="M102.44,50c-3.86,0-3.87,6,0,6S106.3,50,102.44,50Z"/><path class="cls-4" d="M59.54,47.27c-3.86,0-3.86,6,0,6S63.41,47.27,59.54,47.27Z"/><path class="cls-4" d="M33,81c-3.86,0-3.87,6,0,6S36.86,81,33,81Z"/><path class="cls-4" d="M35.71,92.2c-3.86,0-3.86,6,0,6S39.58,92.2,35.71,92.2Z"/><path class="cls-4" d="M55.46,53a1,1,0,0,0,0,2A1,1,0,0,0,55.46,53Z"/><path class="cls-4" d="M108.22,49.27a1,1,0,0,0,0,2A1,1,0,0,0,108.22,49.27Z"/><path class="cls-4" d="M100.05,46.54a1,1,0,0,0,0,2A1,1,0,0,0,100.05,46.54Z"/><path class="cls-4" d="M96,74.8a1,1,0,0,0,0,2A1,1,0,0,0,96,74.8Z"/><path class="cls-4" d="M91.88,77.18a1,1,0,0,0,0,2A1,1,0,0,0,91.88,77.18Z"/><path class="cls-4" d="M92.9,73.1a1,1,0,0,0,0,2A1,1,0,0,0,92.9,73.1Z"/><path class="cls-4" d="M32.31,77.18a1,1,0,0,0,0,2A1,1,0,0,0,32.31,77.18Z"/><path class="cls-4" d="M38.78,88.76a1,1,0,0,0,0,2A1,1,0,0,0,38.78,88.76Z"/><path class="cls-4" d="M40.14,91.48a1,1,0,0,0,0,2A1,1,0,0,0,40.14,91.48Z"/><path class="cls-4" d="M41.5,87.39a1,1,0,0,0,0,2A1,1,0,0,0,41.5,87.39Z"/><path class="cls-4" d="M47.63,121.44a1,1,0,0,0,0,2A1,1,0,0,0,47.63,121.44Z"/><path class="cls-4" d="M45.93,117.35a1,1,0,0,0,0,2A1,1,0,0,0,45.93,117.35Z"/><path class="cls-4" d="M42.86,120.41a1,1,0,0,0,0,2A1,1,0,0,0,42.86,120.41Z"/><path class="cls-4" d="M41.84,110.54a1,1,0,0,0,0,2A1,1,0,0,0,41.84,110.54Z"/><g class="cls-5"><g class="cls-6"><g class="cls-6"><path class="cls-7" d="M164.74,98.67a5.54,5.54,0,0,0-3.2-.4,7.05,7.05,0,0,1-2.26,0,2.71,2.71,0,0,0-2,.26l-3,1.28c-2.21.93-5,1.68-4.71,1.22.5-.64,1.35-2.5,2.43-4.23s2.34-3.32,2.4-3.47c.15-.42,0-.38-.79-.1s-2,.83-3.85,1.38c-1.63.44-2.71.79-2.55.51a4.46,4.46,0,0,0-.66.18c-.41.13-1,.3-1.65.48a16,16,0,0,1-4.35.62c-1.75-.14-1.68-1.13-3.58-1.45a7.38,7.38,0,0,1-4.08-3.56,13.44,13.44,0,0,1-1.31-4.69,5.39,5.39,0,0,1,.94-4.47A7.57,7.57,0,0,1,136.71,80a15,15,0,0,0,3.6-1.11,12.45,12.45,0,0,1,3.24-1.06c2.57-.51,4.14-1.15,6.74-1.27a67.84,67.84,0,0,0,7,.58,2.65,2.65,0,0,0,1.05-.34c.31-.21,1.07-.07,1.47-.1,2.4.67,4.25,2.35,6.51,2.66.62.1,1.69-.19,1.66-.77a12.43,12.43,0,0,0-3.65-7.72,8,8,0,0,0-3.66-2.09,18.6,18.6,0,0,0-2.2-.52c-.74-.16-1.67-.26-2.54-.39a24.79,24.79,0,0,1-7-2.27c-1.17-.54-2.35-1.15-3.52-1.74L141.86,62a30.93,30.93,0,0,0-5.6-3,9.74,9.74,0,0,0-7.38.24c-.76.37-1.49.76-2.18,1.16s-1.3.88-1.92,1.32a40.11,40.11,0,0,0-3.4,2.78,64.87,64.87,0,0,1-6.79,5.58,26.54,26.54,0,0,0-8.87,9,19.21,19.21,0,0,0-2.07,3.59,38.33,38.33,0,0,0-1.32,7.73c-.07,2.57.47,5,1.93,6.53.77,2.66,1.35,4.63,2,6.4a11.28,11.28,0,0,0,3.54,4.82,40.25,40.25,0,0,0,8,4.56c2.79,1.23,5.62,2.2,8.35,3.25,3.18,1.15,6,2,8.91,3.14a11.09,11.09,0,0,1,2.47,1.87c1,.86,2.14,1.83,2.7,2.25,1,.83,2.8,1.08,4.68,1a20.66,20.66,0,0,0,5.36-1.18c4.88-2.18,9.08-4,13.54-6.26,1.62-.58,3.35-.51,5.2-1.2a15,15,0,0,0,2.69-1.72c.39-.31.76-.61,1.1-.93s.65-.67.94-1a16.67,16.67,0,0,0,1.61-2.07c.24-.36.47-.73.69-1.12s.34-.63.89-1.54a10,10,0,0,0,1.56-4.5,9.64,9.64,0,0,0-.36-3.63,10.22,10.22,0,0,0-2.37-4.18,9.36,9.36,0,0,0-2.51-1.95,7.07,7.07,0,0,0-1.61-.6,2.47,2.47,0,0,0-1.3-.06c-.16,0-.17.09-.29,0A3.46,3.46,0,0,1,168.61,91a4,4,0,0,0-1.7-1.29,5.89,5.89,0,0,0-2.77,0,7.69,7.69,0,0,0-2.18.85c-3.59,1.87-7.63,3.88-11.78,2.63.25.3.34.71.63.74a68.28,68.28,0,0,1,8,3.27,35.2,35.2,0,0,0,3.85,1.49c.65.2,1.35.38,2,.52s1.22.26,1.73.36a2.81,2.81,0,0,1,1.36-.12l.72.4a2.75,2.75,0,0,1,.6.5.57.57,0,0,1-.32.72,1.07,1.07,0,0,1-.27.09h0l.24,0,.15,0h0l-.15-.08,0,0-.09-.06a1.51,1.51,0,0,1-.25-.18l-1.8-1.51-.23-.07A5.26,5.26,0,0,1,164.74,98.67Z"/><path class="cls-8" d="M155.83,67.87c.86.14,1.79.23,2.55.39a18.91,18.91,0,0,1,2.19.52,8,8,0,0,1,3.66,2.08,12.35,12.35,0,0,1,3.65,7.72c0,.58-1,.87-1.65.76-2.26-.3-4.11-2-6.51-2.64-.4,0-1.16-.11-1.46.11a3.12,3.12,0,0,1-1,.34c-2.37-.05-4.39-.27-7-.57-2.59.12-4.16.75-6.72,1.27a12.42,12.42,0,0,0-3.22,1.06A14.88,14.88,0,0,1,136.73,80a7.57,7.57,0,0,0-4.17,2.32,5.4,5.4,0,0,0-.91,4.47A13.25,13.25,0,0,0,133,91.48a7.31,7.31,0,0,0,4.1,3.53c1.9.31,1.83,1.29,3.58,1.43,0,0-.35.24-.93.73a13.79,13.79,0,0,0-2.16,2.3,21.81,21.81,0,0,1-12.76-6.17,17,17,0,0,1-2.17-2.79,7.12,7.12,0,0,1-.79-1.52c-.08-.51-.15-1-.19-1.53a20.63,20.63,0,0,1,.49-6.11,24.73,24.73,0,0,1,6.48-6.09,38.81,38.81,0,0,1,8.19-4.05A54.73,54.73,0,0,1,155.83,67.87Z"/><path class="cls-9" d="M136.76,97.83s.77.18,1.78.37l3.21.59c1,.19,1.68.4,1.72.84s-.56,1.15-2.38,2.24l-.94.38c-.62.24-1.51.58-2.64.94a42.35,42.35,0,0,1-9.11,1.89l-.34,0-.26,0-.52,0c-.35,0-.69-.07-1-.11-.69-.09-1.38-.21-2-.36a18.21,18.21,0,0,1-3.81-1.32,9,9,0,0,1-4.67-4.52,21.81,21.81,0,0,1-.84-2.88,25.37,25.37,0,0,1-.52-5.07s.18-.31.43-.85.61-1.32,1-2.23a57.27,57.27,0,0,0,2.8-6.65s.13-.31.38-.83.65-1.28,1.19-2.13a26.45,26.45,0,0,1,5-5.73c4.23-3.84,10.69-6.4,12.15-5.84l1.69-.33c1.05-.15,2.45-.39,4-.47a32.88,32.88,0,0,1,4.54,0,11.6,11.6,0,0,1,3.31.64l.78.53c.49.33,1.16.72,1.92,1.17a10.17,10.17,0,0,0,5.18,1.62,24.24,24.24,0,0,1,4.43,2.56c1.78,1.37,2.71,2.72.15,2.56l-1.72.21c-.95.13-2.07.28-2.83.34a52.2,52.2,0,0,0-10-.66,71.67,71.67,0,0,0-7.72.72,26.58,26.58,0,0,1-4.73.52s-.42.08-1.16.26a23.94,23.94,0,0,0-3,1,16.89,16.89,0,0,0-4,2.19,15.49,15.49,0,0,0-3.64,3.75,9.52,9.52,0,0,0-1.86,5.07,8.06,8.06,0,0,0,1.58,5.24,10.55,10.55,0,0,0,5.08,3.6A17.86,17.86,0,0,0,136.76,97.83Z"/><path class="cls-10" d="M139.32,97.16l1.81,0,3.44-.17c2.24-.09,3.41-.16,1.72,2a19.7,19.7,0,0,0-.26,3.34,11.8,11.8,0,0,1-.25,2.81,3.89,3.89,0,0,1-2.15,2.56l-1,.48c-.63.3-1.56.73-2.79,1.21a29,29,0,0,1-9.61,1.69,22.62,22.62,0,0,1-11.73-3,16.86,16.86,0,0,1-7.62-9.28,8.79,8.79,0,0,0-.53-1.17,36.66,36.66,0,0,0-2.21-3.49,12.9,12.9,0,0,1-.33-1.42,15.14,15.14,0,0,1-.2-3.48c.11-2.7,1.23-5.82,3.35-7.26a40.73,40.73,0,0,1,4.59-4.59c2.63-2.3,6-4.34,7.45-5.84,0,0,1.24-.27,2.64-.68s3-1,3.68-1.87c0,0-1.19.89-2.79,2.35a37.1,37.1,0,0,0-5.25,5.86,34.76,34.76,0,0,0-4,7.35c-1,2.31-1.51,4.21-2.26,4.89a7.57,7.57,0,0,0-.55,1.78,10.29,10.29,0,0,0,.2,4.77,11.63,11.63,0,0,0,3.93,5.91,16.13,16.13,0,0,0,9.4,3.43,11.74,11.74,0,0,0,1.86-.62,30.81,30.81,0,0,0,4-1.89C136.67,101.13,139.17,99.09,139.32,97.16Z"/><path class="cls-11" d="M152.07,93.63a24.36,24.36,0,0,0,4.18-2.23,3.4,3.4,0,0,0,.45-.33c.15-.13-.4.36-.68.7a3.32,3.32,0,0,0-1.13,2.33c0,.65.15,1.36.26,2.72.08.3.18.47.35.5s.3-.33.37-.45a4.19,4.19,0,0,0,1.53-.37.92.92,0,0,1,.56-.23,2.09,2.09,0,0,1,.68.21c.52.23,1.18.61,2,1a8,8,0,0,0,2.83.35,3.09,3.09,0,0,1,.67,0l.35,0,.17.05.09,0h.07l3.39,2.86h0c.18.15.33.25.4.3l.09,0,.18.09h0a1.27,1.27,0,0,0-.38-.08,2.93,2.93,0,0,0-1.08.09c-.14,0,0,0,0,0l.06-.06a.18.18,0,0,0,.05-.12.21.21,0,0,0-.1-.19h0s-.05,0,0,0c-.11.06-.14,0-.22,0a4.28,4.28,0,0,0-.54,0c-.43,0-1,0-1.78,0a11,11,0,0,1-2.69-.47,51.66,51.66,0,0,1-6.21-2.51,40.13,40.13,0,0,0-5-2.56,4,4,0,0,1-1.37-1.62c.19-.38,1.17-.14,1.77-.34,1.66-.47,2.44,1.11,3.47,1.8,1.31.73,3.06.48,4.72.78a5.69,5.69,0,0,1,1.77,1.16c.81.84,2.19.45,3.48.35a3,3,0,0,1,2.15.51c.61.39,1.05.85,1.49,1.09a5.88,5.88,0,0,0,.85.39,4.26,4.26,0,0,1,.93.56c.58.45.91,1.25.42,1.7.2-.19.31-.05.25.3a1.73,1.73,0,0,1-.28.59,3.77,3.77,0,0,1-.78.76,7.39,7.39,0,0,1-1.93,1c-.5.15-.73.16-.42-.08-.06.16-.82-.09-1.12-.37-.13-.21-.43-.49-.39-.64.37-1.17-.75-2.3-1.34-3.38-.08,0-.78.24-1.65.41a4.17,4.17,0,0,1-2.52-.12c-1-.58-1.78-1.39-2.5-1.38-.17.11-.19.73-.39.85a28.29,28.29,0,0,1-4,2.92c-2.29,1.35-5.53,2.43-5.9,2.2a1.44,1.44,0,0,1,.23-1.92c1.45-1.78,1.28-2.64,2.35-4.13.3-.39.84-.86,1.14-1.26a23,23,0,0,0,1.7-2.59c.33-.73.33-1-.36-.73A2.92,2.92,0,0,1,152.07,93.63Z"/><path class="cls-12" d="M124.79,61.8s-1.71,1.55-4.25,3.64-5.9,4.75-10,7.67a28.9,28.9,0,0,0-2.83,3A16.63,16.63,0,0,0,105,80.66q-.72,1.11-1.38,2.25l-.15.5c-.1.32-.24.78-.36,1.35a22.81,22.81,0,0,0-.66,4.32c-.23,3.29.54,6.86,1.78,7.78,0,0,.37,1.4.89,2.85a19.27,19.27,0,0,1,1.06,3.42,4.55,4.55,0,0,0,.29.73,11.43,11.43,0,0,0,1.09,1.88,14.26,14.26,0,0,0,6.08,4.8"/><path class="cls-13" d="M157.83,95.28a9.94,9.94,0,0,0,1.68.83c.86.34,2,.6,2.72.83a8.5,8.5,0,0,0,1.62.34l.08,0h0l4.23,3.56.19.16.25.16.2.1,0,0-.12,0a2.85,2.85,0,0,0-1.26,0,2.89,2.89,0,0,0-.75.28,1.56,1.56,0,0,0,.2-.16c.07-.07.19-.18.3-.31l.08-.1,0-.06,0,0v0l-.95,1.25-.05.06a.13.13,0,0,1-.18,0,1.53,1.53,0,0,0-1.1,0c-.48.12-1,.52-1.7.36A33,33,0,0,1,153.17,98c-1.35-.9-2.51-2.11-3.9-3.14-.25-.29-.7-.6-.65-.95s.58-.12.93-.22c.41.18.74.57,1.28.81,1,.55,2.2.62,3,1.28s1.68,1.32,2.71,1.84a9,9,0,0,0,2,.63c1.28.37,2.55.69,3.82,1,.62.13,1.28.25,1.88.34l1.6.27a1,1,0,0,1,1.27-.12,2.21,2.21,0,0,1,.6.66c0,.07-.06.28-.12.44s.15.21.18.3a.07.07,0,0,1-.05.11l0,0h0l.23,0a2,2,0,0,1,.69,0l.14,0h0l-.18-.09-.11-.06-.18-.13-.13-.1-.06-.06-2.51-2.11h-.06c-.19,0-.41,0-.62-.08-.43-.05-.85-.12-1.26-.2-.68-.13-2.12-.32-3.25-.65a22.2,22.2,0,0,1-2.32-.86,1.59,1.59,0,0,0-1.1,0,1.7,1.7,0,0,1-1,.14A4,4,0,0,1,156.5,96C156.83,95.47,157.14,95.07,157.83,95.28Z"/></g></g></g><path class="cls-14" d="M169.16,61.86a1,1,0,0,0,0,2A1,1,0,0,0,169.16,61.86Z"/><path class="cls-14" d="M172.56,42.8a1,1,0,0,0,0,2A1,1,0,0,0,172.56,42.8Z"/><path class="cls-14" d="M175.63,43.48a1,1,0,0,0,0,2A1,1,0,0,0,175.63,43.48Z"/><path class="cls-14" d="M133.41,53a1,1,0,0,0,0,2A1,1,0,0,0,133.41,53Z"/><path class="cls-14" d="M133.07,58.12a1,1,0,0,0,0,2A1,1,0,0,0,133.07,58.12Z"/><path class="cls-14" d="M192.31,90.12a1,1,0,0,0,0,2A1,1,0,0,0,192.31,90.12Z"/><path class="cls-14" d="M199.46,88.76a1,1,0,0,0,0,2A1,1,0,0,0,199.46,88.76Z"/><path class="cls-14" d="M198.78,94.2a1,1,0,0,0,0,2A1,1,0,0,0,198.78,94.2Z"/><path class="cls-14" d="M203.88,92.16a1,1,0,0,0,0,2A1,1,0,0,0,203.88,92.16Z"/><path class="cls-14" d="M109.5,41.61a1,1,0,0,0,0,2A1,1,0,0,0,109.5,41.61Z"/><path class="cls-15" d="M115.18,155.71c-.83-3-3.62-5.42-5.72-7.54a50.65,50.65,0,0,0-13.56-9.63A63.35,63.35,0,0,0,68,126.62c-5.75-1-12.35-1.14-18.36,1.58-3.1,1.41-6,3.43-7,6.6s.3,6.39,1.46,9c5.17,11.59,18.07,16.76,30.67,20.2,10.78,2.93,23.69,5.67,35.72-.14C114.09,162.12,116.1,159,115.18,155.71Z"/><path class="cls-15" d="M28.32,136.77c1.33-.65,2.07-2.25,2.76-3.48a21.68,21.68,0,0,0,2.49-7.64,30.14,30.14,0,0,0,1.22-15.11A18.94,18.94,0,0,0,31,101.32c-1.21-1.47-2.69-2.81-4.41-3a5.77,5.77,0,0,0-4.19,1.43c-4.84,3.52-5.24,10.48-4.83,17.15.35,5.71,1.14,12.49,6,18.16C25,136.71,26.85,137.5,28.32,136.77Z"/><ellipse class="cls-16" cx="148" cy="89" rx="143" ry="84"/><path class="cls-14" d="M101.59,50.8a1,1,0,0,0,0,2A1,1,0,0,0,101.59,50.8Z"/><path class="cls-14" d="M59.2,47.73a1,1,0,0,0,0,2A1,1,0,0,0,59.2,47.73Z"/><path class="cls-14" d="M33.16,82a1,1,0,0,0,0,2A1,1,0,0,0,33.16,82Z"/><path class="cls-14" d="M35.2,92.67a1,1,0,0,0,0,2A1,1,0,0,0,35.2,92.67Z"/><path class="cls-14" d="M74,71.22a1,1,0,0,0,0,2A1,1,0,0,0,74,71.22Z"/><path class="cls-14" d="M73,66.37a1,1,0,0,0,0,2A1,1,0,0,0,73,66.37Z"/><path class="cls-14" d="M76.82,67.14a1,1,0,0,0,0,2A1,1,0,0,0,76.82,67.14Z"/><path class="cls-14" d="M98,95.61c-3.86,0-3.87,6,0,6S101.88,95.61,98,95.61Z"/><path class="cls-14" d="M225.67,57.14c-3.86,0-3.87,6,0,6S229.54,57.14,225.67,57.14Z"/><path class="cls-14" d="M228.39,131.69c-3.86,0-3.86,6,0,6S232.26,131.69,228.39,131.69Z"/><path class="cls-14" d="M253.59,85.39c-3.87,0-3.87,6,0,6S257.45,85.39,253.59,85.39Z"/><path class="cls-14" d="M254.27,96.63c-3.86,0-3.87,6,0,6S258.13,96.63,254.27,96.63Z"/><path class="cls-14" d="M139.54,41.14c-3.86,0-3.86,6,0,6S143.41,41.14,139.54,41.14Z"/><path class="cls-14" d="M146.69,42a1.5,1.5,0,0,0,0,3A1.5,1.5,0,0,0,146.69,42Z"/><path class="cls-14" d="M219.88,58a1.5,1.5,0,0,0,0,3A1.5,1.5,0,0,0,219.88,58Z"/><path class="cls-14" d="M259,90a1.5,1.5,0,0,0,0,3A1.5,1.5,0,0,0,259,90Z"/><path class="cls-14" d="M228.73,127.4a1.5,1.5,0,0,0,0,3A1.5,1.5,0,0,0,228.73,127.4Z"/><path class="cls-14" d="M223,129.79a1.5,1.5,0,0,0,0,3A1.5,1.5,0,0,0,223,129.79Z"/><path class="cls-14" d="M221.93,135.23a1.5,1.5,0,0,0,0,3A1.5,1.5,0,0,0,221.93,135.23Z"/><path class="cls-14" d="M177.67,100.44c-7.72,0-7.73,12,0,12S185.4,100.44,177.67,100.44Z"/><path class="cls-14" d="M81.67,129.54c-7.72,0-7.73,12,0,12S89.4,129.54,81.67,129.54Z"/><path class="cls-14" d="M77.59,126.54a1,1,0,0,0,0,2A1,1,0,0,0,77.59,126.54Z"/><path class="cls-14" d="M171.37,99.48a1,1,0,0,0,0,2A1,1,0,0,0,171.37,99.48Z"/><path class="cls-14" d="M170,103.39a1,1,0,0,0,0,2A1,1,0,0,0,170,103.39Z"/><path class="cls-14" d="M168,100.67a1,1,0,0,0,0,2A1,1,0,0,0,168,100.67Z"/><path class="cls-14" d="M103.63,95.9a1,1,0,0,0,0,2A1,1,0,0,0,103.63,95.9Z"/><path class="cls-17" d="M103.12,101.35a1,1,0,0,0,0,2A1,1,0,0,0,103.12,101.35Z"/><path class="cls-17" d="M127.29,89.78a1,1,0,0,0,0,2A1,1,0,0,0,127.29,89.78Z"/><path class="cls-17" d="M131.37,87.73a1,1,0,0,0,0,2A1,1,0,0,0,131.37,87.73Z"/><path class="cls-17" d="M131.71,91.14a1,1,0,0,0,0,2A1,1,0,0,0,131.71,91.14Z"/><path class="cls-17" d="M129.33,135.73a1,1,0,0,0,0,2A1,1,0,0,0,129.33,135.73Z"/><path class="cls-17" d="M125.24,135.39a1,1,0,0,0,0,2A1,1,0,0,0,125.24,135.39Z"/><path class="cls-17" d="M120.14,134a1,1,0,0,0,0,2A1,1,0,0,0,120.14,134Z"/><path class="cls-18" d="M55.46,88.12c-3.86,0-3.87,6,0,6S59.32,88.12,55.46,88.12Z"/><path class="cls-18" d="M125.93,80.29c-3.87,0-3.87,6,0,6S129.79,80.29,125.93,80.29Z"/><path class="cls-18" d="M181.41,70.07c-3.86,0-3.86,6,0,6S185.28,70.07,181.41,70.07Z"/><path class="cls-19" d="M125.33,82a1,1,0,0,0,0,2A1,1,0,0,0,125.33,82Z"/><path class="cls-20" d="M54.86,88.84a1,1,0,0,0,0,2A1,1,0,0,0,54.86,88.84Z"/><path class="cls-19" d="M56.65,90.88a1,1,0,0,0,0,2A1,1,0,0,0,56.65,90.88Z"/><path class="cls-19" d="M181.24,71.48a1,1,0,0,0,0,2A1,1,0,0,0,181.24,71.48Z"/><path class="cls-21" d="M230.78,293.48c-9,0-9,14,0,14S239.8,293.48,230.78,293.48Z"/><path class="cls-21" d="M206.78,346.59c-9,0-9,14,0,14S215.8,346.59,206.78,346.59Z"/><path class="cls-21" d="M222.1,276.56c-5.15,0-5.16,8,0,8S227.25,276.56,222.1,276.56Z"/><path class="cls-20" d="M229.24,296.44c-2.57,0-2.57,4,0,4S231.82,296.44,229.24,296.44Z"/><path class="cls-20" d="M204.73,349c-2.57,0-2.57,4,0,4S207.31,349,204.73,349Z"/><path class="cls-22" d="M211.37,339.84c-2.57,0-2.58,4,0,4S214,339.84,211.37,339.84Z"/><path class="cls-20" d="M217.5,287.24c-2.57,0-2.58,4,0,4S220.08,287.24,217.5,287.24Z"/><path class="cls-20" d="M196.31,344.18c-2.58,0-2.58,4,0,4S198.89,344.18,196.31,344.18Z"/><path class="cls-20" d="M223.35,383.09c-1.81-.46-4,0-5.8.35a35.43,35.43,0,0,0-9.51,3.09,40.38,40.38,0,0,0-15.48,8.52c-2.43,2.16-4.73,4.9-5.33,8.19-.31,1.7-.25,3.49,1.06,4.76s3.4,1.63,5.13,1.85c7.72,1,14.7-3,20.69-7.42C219.23,398.68,225,394,226,387.3A3.5,3.5,0,0,0,223.35,383.09Z"/><path class="cls-23" d="M101,52.65c-.65,3.73-1.16,5.92-5.11,6.91-3.57.9-6.57,1.91-7.74-2.44-1.34-5-9.06-2.86-7.72,2.12,2,7.45,7.81,10.2,15,8.63,3.27-.71,6.79-1.42,9.27-3.84s3.39-6,4-9.26C109.58,49.74,101.88,47.58,101,52.65Z"/><path class="cls-24" d="M86.33,124.67c-2.75-4.35-8.75-.36-6,4,2.09,3.3,8.73,5.24,9.15,9.24S88.05,148.17,84.4,150c-4.58,2.35-.3,9.11,4.25,6.78,5.48-2.81,8.4-10.49,8.82-16.37C98,133.92,89.71,130,86.33,124.67Z"/><path class="cls-24" d="M80.52,70.74c0-5.15-8-5.16-8,0,0,3.91.23,8.31-1.54,11.92s-6.66,7.93-10.74,7.58c-5.13-.44-5.1,7.56,0,8,6.14.53,12.68-4.42,16.16-9.18C80.28,83.78,80.55,77.05,80.52,70.74Z"/><path class="cls-24" d="M67.36,91.34c0-5.15-8-5.16-8,0,0,3.91.23,8.31-1.54,11.92s-6.66,7.94-10.74,7.58c-5.13-.44-5.1,7.56,0,8,6.13.53,12.68-4.42,16.16-9.18C67.11,104.38,67.39,97.65,67.36,91.34Z"/><path class="cls-25" d="M69.33,121.67c-1.62-4.89-19-13.16-19-8,0,3.9,14.26,12,12.49,15.59s-18.4-5.24-22.49-5.59c-5.12-.45.91,14.56,6,15,6.14.53,18.43,1.75,21.91-3C72.11,130.38,71.33,127.67,69.33,121.67Z"/><g class="cls-6"><g class="cls-6"><path class="cls-7" d="M198.69,61c0,1.14,2.4,2.86,4.77,4.71A37.78,37.78,0,0,1,208.63,70a17.43,17.43,0,0,0,2.19,2c.9.79,2,1.59,3.18,2.48a73.5,73.5,0,0,1,6.77,5.73,25.61,25.61,0,0,1,4.34,5.48c.84,1.6,1.18,2.75,1,2.81a4.1,4.1,0,0,0-1.57.9c-.71.53-1.53,1.19-2.31,1.83s-1.63,1.27-2.23,1.8-1.08,1-1.15,1.32a33.5,33.5,0,0,0-.51,10.9c0,1.92.37,2.48-.2,3-.09.13.24.7.52,1.59a8,8,0,0,1,.34,1.59,7.58,7.58,0,0,1-.2,2c-.6,1.94-2.59,3.48-3.31,5.34a26.53,26.53,0,0,1-6.56,6.93,66,66,0,0,1-8.66,5.58,37.37,37.37,0,0,1-9.4,3.94,32.3,32.3,0,0,1-8.87.9c-5-.38-9,.43-14.17,0-5.37-.29-9.24-.22-14.65-.82-5.06-1-9.64-1.71-14.91-2.49a7.3,7.3,0,0,0-2,.08,12.34,12.34,0,0,1-2.59-.26c-4.16-1.27-7.45-3.55-11.29-4.68-1.06-.33-2.81-.43-2.71.21.52,3.21,3,6.39,6.4,9.25,3.26,2.66,8.2,3.74,13.19,4.89a28.48,28.48,0,0,1,14.91,8.72c2.28,2.7,4,6.85,10.31,6.89a92.31,92.31,0,0,0,11-1.21A66.15,66.15,0,0,1,187,156a61.27,61.27,0,0,0,16.8-1.13,39.38,39.38,0,0,0,5.57-1.16A94.31,94.31,0,0,0,219.6,149c3.23-1.82,6-4.08,7.4-6.53,3.1-2.71,5.49-4.76,7.6-6.84a24.13,24.13,0,0,0,5.25-7.46,64.69,64.69,0,0,0,3.81-12.75c.86-4.33,1.44-8.69,1.94-13.35a81.92,81.92,0,0,0,0-15.58c-.08-.93.06-3.17.07-5.54,0-1.18,0-2.41-.1-3.47s-.17-2-.21-2.58a13.62,13.62,0,0,0-2.89-6.52,22.08,22.08,0,0,0-5-4.65c-2.63-1.58-5.15-3-7.67-4.35l-7.82-4.17C220.2,54,219,52.28,216.9,51a31,31,0,0,0-7.22-2.82l-7-1.6-3-1L197,44.92l-2.23-.54-1.9-.33c-1.15-.18-2.07-.31-2.82-.39a17.29,17.29,0,0,0-1.77-.06c-1.77,0-1.42.39-1.75.22-1.73-.41-2.16-1.86-4.35-2.52a13.14,13.14,0,0,0-4.42-.33,13.47,13.47,0,0,0-3.68.69c-3,.84-6.19,1.85-9.47,2.62-1.65.43-3.32.65-5,.94a39.17,39.17,0,0,1-5.25.32c.47.23.69.6,1.17.56a36,36,0,0,1,3.65.26l1.76.19c.58.08,1.16.2,1.72.3,1.14.22,2.25.4,3.35.64l3.27.78c4.33,1.11,8.56,2.17,13.46,3a16.75,16.75,0,0,1,3.39.19l1.5.33,1.43.35,2.79.63a7.82,7.82,0,0,1,2.44,1.43,12.38,12.38,0,0,1,2.26,2.31C197.87,58.27,198.74,60,198.69,61Z"/><path class="cls-8" d="M139.4,142.4c-5-1.14-9.92-2.21-13.18-4.88-3.43-2.85-5.89-6-6.41-9.23-.1-.65,1.64-.54,2.7-.21,3.84,1.12,7.14,3.39,11.3,4.66a12.2,12.2,0,0,0,2.58.25,7.34,7.34,0,0,1,2-.08c5.27.78,9.85,1.51,14.91,2.48,5.42.6,9.28.53,14.65.82,5.12.37,9.17-.43,14.16-.06a32.29,32.29,0,0,0,8.87-.91,37,37,0,0,0,9.38-4,65.63,65.63,0,0,0,8.63-5.59,26.14,26.14,0,0,0,6.53-6.94c.72-1.85,2.7-3.4,3.29-5.33,0,0,.4-.1,1.22-.36.41-.14.92-.32,1.5-.57a18,18,0,0,0,2.06-1A41.53,41.53,0,0,1,213.79,128a65,65,0,0,1-17.08,12.83A109.44,109.44,0,0,1,168,144.19c-4.79,0-9.55-.21-14.28-.49S144.18,143,139.4,142.4Z"/><path class="cls-9" d="M220.73,114.82s.09-.24.26-.65.42-1,.64-1.64.54-1.42.79-2.24.54-1.67.83-2.49c1.1-3.29,2-6.33,4.37-4.92a22.86,22.86,0,0,1,1.3,2.66,25.09,25.09,0,0,1,1.76,7.2,24.3,24.3,0,0,1-1,9.7,18.61,18.61,0,0,1-5,8.16s-1.58,1.43-3.71,3.05-4.8,3.41-6.67,4.56l-1.36.35c-.86.23-2.08.6-3.54,1a92,92,0,0,0-10.77,4s-.5.21-1.41.52l-1.65.58-2.15.67A88.85,88.85,0,0,1,181.51,148c-8.85,1.39-17.87,1.33-19,.36,0,0-3.39-.36-7.12-1s-7.88-1.6-9.52-2.48a21.52,21.52,0,0,0-3.11-2.19,18.94,18.94,0,0,0-7.52-2.62,54.75,54.75,0,0,1-7.24-3.64c-3-1.88-4.6-3.58-.29-2.67l.85.08,2.05.17,4.87.36s2.26.53,5.75,1.18,8.23,1.35,13.09,2,9.79,1.15,13.64,1.5,6.65.58,7.2.85c0,0,.65,0,1.83.1s2.86.07,4.95,0a60.77,60.77,0,0,0,15.83-2.56,41.51,41.51,0,0,0,16.3-9.17C218.42,124.06,220.92,119.05,220.73,114.82Z"/><path class="cls-10" d="M219.91,113.48s0-.17.07-.48.13-.75.19-1.28c.15-1,.35-2.45.61-3.89.54-3,1.19-5.93,3.8-7.8,0,0,.13-.2.33-.55L225.8,98c.68-1.2,1.61-2.85,2.38-4.49.43-.82.79-1.63,1.18-2.38a14.19,14.19,0,0,1,1.14-1.9c.78-1,1.66-1.36,2.67-.17,0,0,.24.31.69.86s1,1.44,1.66,2.62a29.76,29.76,0,0,1,3.42,10.79A36,36,0,0,1,235.18,124a37.8,37.8,0,0,1-2.43,4,35.28,35.28,0,0,1-6.25,7,4.23,4.23,0,0,0-.36.33c-.23.24-.58.58-1,1.06a54.34,54.34,0,0,0-3.66,4.67s-.64.55-1.71,1.38a36.56,36.56,0,0,1-4.37,2.86c-3.51,2-8,3.59-11.11,3.17,0,0-4.09.44-8.85.63-2.37.13-4.91.15-7.24.27a40.38,40.38,0,0,0-6.07.54,30.42,30.42,0,0,0-3.15-.72,13.34,13.34,0,0,0-5.73,0s2.18-.3,5.53-.89,7.84-1.49,12.41-2.76c2.29-.6,4.59-1.34,6.8-2.05s4.28-1.5,6.14-2.22c3.72-1.42,6.58-2.58,7.86-2.53l.71-.23a19,19,0,0,0,2-.8,29.22,29.22,0,0,0,6.44-4,28.42,28.42,0,0,0,7-8.41,23.3,23.3,0,0,0,2.88-12.48,5.36,5.36,0,0,0-.77-1,5.45,5.45,0,0,0-2.23-1.43,5.15,5.15,0,0,0-3.43.1,8.18,8.18,0,0,0-2.11,1.06A19.93,19.93,0,0,0,219.91,113.48Z"/><path class="cls-11" d="M217.44,103.66A43.55,43.55,0,0,0,216,99.1a3.28,3.28,0,0,1,0-1.2c0-.42.11-.85.1-1.23a5.5,5.5,0,0,1,.94-2.58,9.36,9.36,0,0,0,1.48-5.57c.09-1.9-.39-4.12-.38-6.47a3.7,3.7,0,0,0-.68-1.74c-.21-.07-.85-.49-1.07-.55a30.92,30.92,0,0,0-5-4.49,13.28,13.28,0,0,1-2.19-1.66,20.76,20.76,0,0,1-1.95-1.92l-1.8-2.12c-.59-.72-1.16-1.47-1.73-2.23s-1.51-1.54-2.37-2.33-1.83-1.49-2.71-2.25a8.75,8.75,0,0,1-1.71-1.95,14.17,14.17,0,0,1-1-2A9.84,9.84,0,0,0,195,56.9a5.9,5.9,0,0,0-2-1.58,17.24,17.24,0,0,0-4.36-1.71,31.44,31.44,0,0,0-4.48-.81,76.84,76.84,0,0,1-9.13-1.3c-.9-.3-1.8-.45-2.68-.66s-1.75-.43-2.61-.59-1.73-.34-2.59-.54l-2.62-.62a48.86,48.86,0,0,0-8.63-1.69,5.51,5.51,0,0,1-2.54-1.22c.25-.43,1.93-.46,2.91-.83a5.5,5.5,0,0,1,3.39.08c.48.16.93.35,1.37.54a10.89,10.89,0,0,0,1.33.54,15.84,15.84,0,0,0,3.8.3c1.37,0,2.81,0,4.22.13a12.89,12.89,0,0,1,3,1.22,3.71,3.71,0,0,0,1.21.43,8,8,0,0,0,1.43.2c1,.06,2.12,0,3.22,0a12.86,12.86,0,0,1,4,.85,26.13,26.13,0,0,0,4,1.38,34.86,34.86,0,0,0,5.26.75,10.66,10.66,0,0,1,4.6,1.47c-1.12-.84,1.61.22,4.22,1.46,1.28.68,2.55,1.37,3.31,1.84s1,.76.33.48c.28,0,.73.94.66,1.38-.17.2-.24.64-.51.62-2.21-.19-2.84,1.38-4,2.21a8.31,8.31,0,0,0,1.06.67l2.28,1.55c.43.31.88.61,1.3.95s.83.7,1.21,1a11.55,11.55,0,0,1,1.81,2,20.32,20.32,0,0,0,3.6,5.44c.55.34,1.22,0,1.78.39s5,2.55,8.76,5.45a24.22,24.22,0,0,1,4.62,4.6l.75,1.07a9.67,9.67,0,0,1,.54,1,3.6,3.6,0,0,1,.49,1.27,5.35,5.35,0,0,1-.44,1.81c-.25.52-.61.85-.94.76-1.87.09-2.34,2-3.87,2.71-.4.13-.92-.19-1.32,0a7.94,7.94,0,0,0-1.56,1.06,2.67,2.67,0,0,0-1,1.32,12.23,12.23,0,0,0-1.18,4.93A22.81,22.81,0,0,1,217.44,103.66Z"/><path class="cls-12" d="M170.06,157.57s2.8-.61,7.08-1.07a96.68,96.68,0,0,1,16.27-.4l1.65-.07c1-.09,2.37-.16,3.84-.35a33.63,33.63,0,0,0,7.24-1.47c1.17-.17,2.35-.41,3.52-.64,0,0,1-.33,2.54-1,.77-.3,1.67-.68,2.63-1.15s2-.95,3-1.54,2.09-1.18,3.08-1.83a29.09,29.09,0,0,0,2.75-2,10.86,10.86,0,0,0,3.19-3.5l1-.9c.62-.55,1.47-1.26,2.31-2.07a47.4,47.4,0,0,1,4.12-3.66s.33-.29.87-.87a21.47,21.47,0,0,0,2.13-2.59c.42-.58.86-1.23,1.3-1.94s.84-1.54,1.26-2.39a26,26,0,0,0,2-6"/><path class="cls-13" d="M208.16,74.07c-.64-.63-2.34-2.65-4.3-4.63s-4.06-4-4.92-5a87.2,87.2,0,0,0-9-9.22,2.3,2.3,0,0,0-1.3-.39,9.06,9.06,0,0,1-2.08-.07,16.63,16.63,0,0,1-2.09-.37c-.69-.15-1.37-.34-2-.45a11.21,11.21,0,0,0-2-.14,18.59,18.59,0,0,1-3.26.07c-6-1.23-11.55-2.76-17.17-4.23-1.18-.31-2.3-.72-3.43-1.13s-2.28-.74-3.53-1.06c-.46-.23-1.25-.42-1.25-.77-.16-.25,1-.27,1.53-.46.71.06,1.34.35,2.27.44,1.71.27,3.79.18,5.29.63,1.67.45,3,1.12,4.74,1.5a22.82,22.82,0,0,0,3.46.54c4.34.72,8.5,1.36,12.73,2.16a3.92,3.92,0,0,1,1.5-.17,9.43,9.43,0,0,1,1.59.34c1.08.34,2.17.74,3.11,1.06a17.53,17.53,0,0,1,1.72.92c1.71.58,3.63.89,4.56,2s1.7,2.31,2.58,3.44c.44.56.9,1.11,1.36,1.66s.93,1.16,1.43,1.73c.83.9,3.05,3,5.11,5.2s3.94,4.46,4.8,5.28A23.44,23.44,0,0,0,213.06,76a18.24,18.24,0,0,1,3.11,3c.07.1-.69.16-2-.45a14,14,0,0,1-2.49-1.52A25.38,25.38,0,0,1,208.16,74.07Z"/></g></g><g id="Розочка"><path class="cls-26" d="M74.33,74.68c.06-.24.1-.49.15-.73a21.5,21.5,0,0,0,1.42-2.51c3.59-7.74,2.34-16.17-1.53-23.27-.76-1.41-2.88-1.72-4.43-1.14a3.75,3.75,0,0,0-1.47.42,5.31,5.31,0,0,0-1,.37,28.46,28.46,0,0,0-3,1.76h0l0,0c-.34.22-.69.44-1,.68a40.45,40.45,0,0,0-8.21,7.27,32.15,32.15,0,0,0-6,9.09,14.51,14.51,0,0,0-.42,10.52,17.35,17.35,0,0,0,6.8,8.09,4,4,0,0,0,1.07.51,3.12,3.12,0,0,0,2.43,1.38,12.83,12.83,0,0,0,9.51-2.84A17.65,17.65,0,0,0,74.33,74.68Z"/><path class="cls-27" d="M78.56,62.76a15.61,15.61,0,0,0-.92-5.52c.54-2.91-2.57-7.16-4-10.64-.41-1-2-.45-1.77.5a.81.81,0,0,0-.12.37c-.46,5.57-.92,11.38-3.48,16.6-1.28,2.6-3.31,4.69-4.86,7.14a14,14,0,0,0-2,6.81.73.73,0,0,0-.43.43,1.7,1.7,0,0,0,1.3,2.41c1.35.27,2.92-.67,4.11-1.2a26.5,26.5,0,0,0,8-5A15.06,15.06,0,0,0,78.56,62.76Z"/><path class="cls-28" d="M68.18,48.85a.89.89,0,0,0-.74-.75.92.92,0,0,0-1.21-.17A60.07,60.07,0,0,0,57.91,54a.69.69,0,0,0-.24.39c-2.62,1.55-4.65,3.47-5.34,6.41a.73.73,0,0,0,.15.61,3.44,3.44,0,0,0-.17.72,2.73,2.73,0,0,0,1.46,2.73l.12,0a.85.85,0,0,0,.94,1,6.77,6.77,0,0,0,4.05-2.1c.61-.58,1.18-1.21,1.74-1.85C64.91,58.52,68.46,54.32,68.18,48.85Z"/><path class="cls-29" d="M76.8,78.32A6.48,6.48,0,0,0,77,74.48,27.31,27.31,0,0,0,78.22,66c0-.13.07-.25.09-.38a.76.76,0,0,0-.12-.57c0-.16,0-.32,0-.48-.09-1.09-1.93-.91-1.84.19,0,.38,0,.76,0,1.14-1.78,8.2-9.65,13.14-17.49,16.3-2.36-2.67-3.1-6.68-3.12-10.06a21.1,21.1,0,0,1,2.32-9.6,1,1,0,0,0,.65-.46,7.81,7.81,0,0,0,1-5.28,1,1,0,0,0-.19-.41l.07-.18a.65.65,0,0,0-.08-.63A.87.87,0,0,0,57.94,55l-1.62,2.18c-1.47,1.32-2.92,2.64-4.32,4a25,25,0,0,0-4.08,4.77c-2,3.39-2,7.37-1.51,11a.58.58,0,0,0,.05.14,13.23,13.23,0,0,0-.1,4A11.58,11.58,0,0,0,49.89,88c.13.23.28.45.43.67a1.39,1.39,0,0,0,0,1c1.23,2.91,4.66,3.71,7.8,3.58a24.22,24.22,0,0,0,9.26-2.31,2.09,2.09,0,0,0,1.19-1.37A17,17,0,0,0,74,84.2,24.44,24.44,0,0,0,76.8,78.32Z"/><path class="cls-30" d="M48.72,86.48a1,1,0,0,0,0,.81c1.18,2.31,4.13,3.06,6.78,3.09A20.78,20.78,0,0,0,63.27,89a1.46,1.46,0,0,0,.95-1A12,12,0,0,0,68.6,84a16.21,16.21,0,0,0,2-4.46,4.58,4.58,0,0,0,0-3,18.75,18.75,0,0,0,.64-6.5c0-.1,0-.19.06-.29a.55.55,0,0,0-.13-.45c0-.12,0-.24,0-.36-.13-.86-2-1.21-1.55.07a3.74,3.74,0,0,1,.09.89c-1.11,6.28-7.53,9.8-14,11.94"/><path class="cls-31" d="M60.12,88.29a1.31,1.31,0,0,1-.71.49c-2.73.64-5.25-.94-6.95-2.77a16.37,16.37,0,0,1-3.68-6.29A1.31,1.31,0,0,1,49,78.41a10.29,10.29,0,0,1,.6-5.55,16.39,16.39,0,0,1,2.52-4.25,5.59,5.59,0,0,1,2.57-1.86,22,22,0,0,1,5.16-4.58l.21-.23a.74.74,0,0,1,.47-.19c.12-.06.22-.14.34-.2.82-.46,2.31.64.92,1.12a5,5,0,0,0-.82.5c-4.67,4.77-3.62,11.47-1.33,17.35"/><path class="cls-32" d="M73.18,74.77c0-2.21-3.72-1.84-3.68.37,0,.24,0,.48,0,.72a1.73,1.73,0,0,0-.24.1,54.64,54.64,0,0,1-9.13,6c-1.26.66-2.86,1.3-4.23,2.13-.06-.1,0,.08-.08-.15a19.51,19.51,0,0,1-1.4-3.53A12.57,12.57,0,0,1,54,78.85,16.58,16.58,0,0,1,53.78,77c0-.13,0-.26,0-.38.28-3.35.7-6.71,1.15-10,.27-2-2.74-2.61-3.46-1a1.22,1.22,0,0,0-.15.17c-2.28,3.94-4.49,8.07-4.36,12.58a13.39,13.39,0,0,0,.48,3,8.43,8.43,0,0,0,1.75,6.29c.07.11.16.21.24.32A6.86,6.86,0,0,0,53,91.52a2,2,0,0,0,0,.68,1.68,1.68,0,0,0,1.44,1.44A13.51,13.51,0,0,0,62,92.36c.14-.06.28-.09.41-.15l.27-.16.72-.36,0,0A2,2,0,0,0,66,91.5,22.59,22.59,0,0,0,73.18,74.77Z"/><path class="cls-33" d="M64,87.61a3.62,3.62,0,0,0-.91-.37.67.67,0,0,0-.31-.2,4.21,4.21,0,0,0-3.22.3c-1,.5-2,1.48-1.82,2.59a2.33,2.33,0,0,0,2.46,1.8,5.57,5.57,0,0,0,3-1.15,4.68,4.68,0,0,0,1.34-1.24A1.24,1.24,0,0,0,64,87.61Z"/><path class="cls-34" d="M62.69,88.16c-1.06-.46-1.88,1.11-.82,1.57S63.76,88.61,62.69,88.16Z"/><path class="cls-34" d="M51.64,87c-1.06-.46-1.88,1.11-.82,1.57S52.71,87.42,51.64,87Z"/><path class="cls-35" d="M74.89,58.48c-1.07-.46-1.89,1.11-.83,1.57S76,58.93,74.89,58.48Z"/><path class="cls-36" d="M75.78,59.41a1.05,1.05,0,0,0,.06-.24,1.55,1.55,0,0,0,0-.43,1.19,1.19,0,0,0-.24-.55s0,0,0,0l-.06-.06L75.49,58h0a1.25,1.25,0,0,0-1-.3,1.07,1.07,0,0,0-.4.1,1.65,1.65,0,0,0-.37.2,1.55,1.55,0,0,0-.52.62,1.35,1.35,0,0,0-.12.76,1.4,1.4,0,0,0,.29.7,2.16,2.16,0,0,0,.27.25,1.36,1.36,0,0,0,.59.25,1.24,1.24,0,0,0,1.13-.43,2.71,2.71,0,0,0,.24-.35A2.09,2.09,0,0,0,75.78,59.41Z"/></g><g id="Розочка-2" data-name="Розочка"><path class="cls-37" d="M58.84,96.74c-.05-.19-.11-.37-.16-.56a15.24,15.24,0,0,0,.06-2.24c-.33-6.64-4.44-12.29-9.94-16.2a3,3,0,0,0-3.65.54,2.84,2.84,0,0,0-.91.75,4.3,4.3,0,0,0-.57.56,22,22,0,0,0-1.53,2.19h0v0c-.17.27-.34.53-.49.8a28.1,28.1,0,0,0-3.18,7.72,22.9,22.9,0,0,0-.89,8.34,12,12,0,0,0,3.69,7.67,16,16,0,0,0,8,3.72,3.94,3.94,0,0,0,1,0,2.73,2.73,0,0,0,2.28.25,9.23,9.23,0,0,0,5.82-4.94A13,13,0,0,0,58.84,96.74Z"/><path class="cls-38" d="M57.38,86.91a13.76,13.76,0,0,0-2.77-3.67c-.71-2.25-4.58-4.34-7-6.39-.67-.57-1.64.31-1.09.9a.65.65,0,0,0,.05.3c1.79,4.14,3.66,8.44,3.78,13,.07,2.25-.61,4.37-.8,6.6a10.79,10.79,0,0,0,1.12,5.49.56.56,0,0,0-.15.45,1.49,1.49,0,0,0,1.86,1.32c1.08-.22,1.86-1.37,2.52-2.11a18.36,18.36,0,0,0,3.88-6.05C60,93.3,59.14,89.9,57.38,86.91Z"/><path class="cls-39" d="M44.56,80.12a.76.76,0,0,0-.81-.31.74.74,0,0,0-1,.25,41.56,41.56,0,0,0-3.72,6.88.51.51,0,0,0,0,.36,7.24,7.24,0,0,0-1.43,6.22.62.62,0,0,0,.34.39,2.4,2.4,0,0,0,.15.57A2.46,2.46,0,0,0,40.21,96l.09,0a.74.74,0,0,0,1.06.43,4.76,4.76,0,0,0,2.15-2.74c.22-.6.39-1.23.55-1.85C45.87,88.05,46.85,84,44.56,80.12Z"/><path class="cls-40" d="M62,98.6a5.41,5.41,0,0,0-1.33-2.81,22.29,22.29,0,0,0-2.31-6.43c0-.1,0-.2-.08-.3a.6.6,0,0,0-.3-.37l-.2-.34c-.48-.75-1.75-.06-1.26.7.17.26.31.53.47.8,1.82,6.42-2,12.36-6.49,17-2.72-1.19-4.79-3.84-6.08-6.25a16.65,16.65,0,0,1-2-7.59.66.66,0,0,0,.29-.52,6.24,6.24,0,0,0-1.31-4.08,1,1,0,0,0-.3-.24.66.66,0,0,0,0-.14.55.55,0,0,0-.3-.43c-.24-.58-1.24-.74-1.36,0s-.24,1.38-.35,2.06c-.56,1.39-1.11,2.78-1.6,4.19a17.29,17.29,0,0,0-1.15,4.66c-.18,3,1.37,5.88,3.09,8.37l.09.08A10.94,10.94,0,0,0,41,109.86a10.53,10.53,0,0,0,5.18,3.86,5.43,5.43,0,0,0,.57.35,1.18,1.18,0,0,0,.38.75c2,1.71,4.8,1.23,7,.18A17.41,17.41,0,0,0,60,110.52a1.49,1.49,0,0,0,.35-1.35,12,12,0,0,0,1.93-5.52A17.84,17.84,0,0,0,62,98.6Z"/><path class="cls-41" d="M44.76,113a.86.86,0,0,0,.34.57c1.73,1.29,4.16.93,6.08.14a15.05,15.05,0,0,0,5.06-3.39,1,1,0,0,0,.31-1,8.37,8.37,0,0,0,1.67-4.17,11.64,11.64,0,0,0-.21-3.81,3.91,3.91,0,0,0-1.15-2.12,15.51,15.51,0,0,0-2-4.85c0-.08,0-.15-.07-.23a.5.5,0,0,0-.27-.28l-.17-.25c-.42-.57-1.91-.25-1.09.52a3.06,3.06,0,0,1,.4.61c1.58,4.84-1.73,9.33-5.63,12.84"/><path class="cls-42" d="M53.71,110.83a.87.87,0,0,1-.33.57c-1.74,1.29-4.16.93-6.09.14a15.23,15.23,0,0,1-5.06-3.38,1,1,0,0,1-.3-1A8.35,8.35,0,0,1,40.25,103a12,12,0,0,1,.21-3.82,3.83,3.83,0,0,1,1.16-2.11,15.24,15.24,0,0,1,2-4.86,1.42,1.42,0,0,1,.07-.22.53.53,0,0,1,.26-.29l.17-.25c.42-.57,1.92-.24,1.1.53a3.25,3.25,0,0,0-.41.61c-1.58,4.84,1.74,9.32,5.63,12.83"/><path class="cls-43" d="M58,97.16c-.87-1.57-3.4-.18-2.52,1.39.09.17.16.35.25.52a.93.93,0,0,0-.13.15,38.13,38.13,0,0,1-4.34,7.07c-.67.86-1.58,1.81-2.26,2.83l-.12-.09a18.15,18.15,0,0,1-2.35-2.1,12.73,12.73,0,0,1-.86-1,14.73,14.73,0,0,1-.88-1.24c-.06-.09-.1-.18-.16-.27-1.07-2.49-2-5-3-7.55-.57-1.53-3-1-2.87.36,0,.06-.05.11-.05.17-.15,3.52-.18,7.15,1.63,10.35a11.7,11.7,0,0,0,1.49,2,7.49,7.49,0,0,0,3.66,4c.1.06.2.1.3.15a6.18,6.18,0,0,0,3.91,1.45,1.62,1.62,0,0,0,.3.47,1.47,1.47,0,0,0,1.58.58,9.89,9.89,0,0,0,5-3.21c.07-.08.16-.15.23-.23a1.86,1.86,0,0,0,.14-.2c.14-.16.26-.32.39-.48l0,0a1.51,1.51,0,0,0,1.8-1A17,17,0,0,0,58,97.16Z"/><path class="cls-33" d="M56.3,109.15a3.06,3.06,0,0,0-.8,0,.61.61,0,0,0-.3,0,3.19,3.19,0,0,0-2.23,1.2,1.83,1.83,0,0,0,2.14,3,3.92,3.92,0,0,0,1.71-1.73,3.14,3.14,0,0,0,.5-1.3A1.07,1.07,0,0,0,56.3,109.15Z"/><path class="cls-34" d="M55.53,110a.69.69,0,1,0,0,1.38A.69.69,0,1,0,55.53,110Z"/><path class="cls-34" d="M47.07,112.47a.69.69,0,1,0,0,1.38A.69.69,0,1,0,47.07,112.47Z"/><path class="cls-35" d="M53.09,85a.69.69,0,1,0,0,1.37A.69.69,0,1,0,53.09,85Z"/><path class="cls-36" d="M54.09,85.36a1.05,1.05,0,0,0-.05-.19,1.11,1.11,0,0,0-.15-.31,1.07,1.07,0,0,0-.38-.32h0s0,0-.07,0l-.07,0h0a1,1,0,0,0-.81.08.86.86,0,0,0-.26.2,1.05,1.05,0,0,0-.18.25,1.09,1.09,0,0,0-.15.61,1.12,1.12,0,0,0,.2.58,1.27,1.27,0,0,0,.48.41,1.42,1.42,0,0,0,.29.1,1.14,1.14,0,0,0,.52,0,.88.88,0,0,0,.66-.65,1.65,1.65,0,0,0,0-.32A1.38,1.38,0,0,0,54.09,85.36Z"/></g><g id="Розочка-3" data-name="Розочка"><path class="cls-44" d="M58.61,118.92l-.3-.37a12.89,12.89,0,0,0-.64-1.7c-2.32-4.87-7.25-7.8-12.73-9a2.59,2.59,0,0,0-2.65,1.57,2.26,2.26,0,0,0-.47.86,3.2,3.2,0,0,0-.26.6,17.81,17.81,0,0,0-.51,2.13h0v0c0,.25-.1.5-.13.75a22.55,22.55,0,0,0-.07,6.81,18.28,18.28,0,0,0,1.9,6.54A9.66,9.66,0,0,0,48,131.74a13.63,13.63,0,0,0,7.34.23,3.37,3.37,0,0,0,.77-.28,2.4,2.4,0,0,0,1.84-.55,7.7,7.7,0,0,0,3-5.57A10.27,10.27,0,0,0,58.61,118.92Z"/><path class="cls-45" d="M54.43,112a11.31,11.31,0,0,0-3.28-1.87c-1.25-1.46-4.89-1.79-7.38-2.56-.7-.22-1.18.75-.56,1a.39.39,0,0,0,.13.21c2.66,2.53,5.44,5.16,6.94,8.52a44.06,44.06,0,0,1,1.43,5.21,8.47,8.47,0,0,0,2.57,3.76.45.45,0,0,0,0,.39,1.25,1.25,0,0,0,1.85.39c.77-.5,1-1.62,1.3-2.39a14.9,14.9,0,0,0,1.12-5.78A9.15,9.15,0,0,0,54.43,112Z"/><path class="cls-46" d="M42.41,111a.65.65,0,0,0-.73,0,.62.62,0,0,0-.65.49,33.46,33.46,0,0,0-.75,6.36.41.41,0,0,0,.1.27,5.76,5.76,0,0,0,.81,5.13.53.53,0,0,0,.39.18,1.53,1.53,0,0,0,.29.38,2.06,2.06,0,0,0,2.09.47.18.18,0,0,0,.07,0,.63.63,0,0,0,1,0,3.86,3.86,0,0,0,.8-2.74,14.08,14.08,0,0,0-.14-1.57C45.88,116.55,45.36,113.16,42.41,111Z"/><path class="cls-47" d="M61.64,119.3a4.36,4.36,0,0,0-1.9-1.68A17.92,17.92,0,0,0,56,113.53c-.06-.07-.1-.14-.16-.2a.48.48,0,0,0-.35-.18L55.2,113c-.61-.41-1.38.51-.76.93.21.14.4.3.61.45,3.4,4.24,2.29,9.92.26,14.85a11.42,11.42,0,0,1-6.65-2.75,13.18,13.18,0,0,1-3.87-5.06.57.57,0,0,0,.06-.49,5,5,0,0,0-2.28-2.64.74.74,0,0,0-.3-.08l-.06-.11a.45.45,0,0,0-.36-.23c-.36-.36-1.19-.15-1.06.44s.25,1.11.37,1.66c0,1.22,0,2.44.07,3.66a13.9,13.9,0,0,0,.55,3.86c.82,2.34,2.89,4,5,5.29l.1,0a8.64,8.64,0,0,0,2,1.69,8.75,8.75,0,0,0,5.2,1.24,3.31,3.31,0,0,0,.55.08,1,1,0,0,0,.52.45c2.08.64,4.1-.61,5.49-2.11a14.69,14.69,0,0,0,3.12-5.23,1.16,1.16,0,0,0-.15-1.12,9.51,9.51,0,0,0-.22-4.76A14.23,14.23,0,0,0,61.64,119.3Z"/><path class="cls-48" d="M52.77,135.64a.7.7,0,0,0,.44.32c1.74.41,3.5-.63,4.75-1.84A12.66,12.66,0,0,0,60.82,130a.82.82,0,0,0-.08-.86,6.6,6.6,0,0,0,0-3.66,9.27,9.27,0,0,0-1.34-2.8,3.11,3.11,0,0,0-1.55-1.22,12.47,12.47,0,0,0-3.06-3,1.58,1.58,0,0,0-.12-.15.4.4,0,0,0-.29-.12l-.21-.14c-.5-.29-1.56.43-.68.75a2.65,2.65,0,0,1,.5.32c2.72,3.13,1.55,7.56-.37,11.44"/><path class="cls-49" d="M59,131.14a.78.78,0,0,1-.08.53c-.95,1.52-2.93,2-4.67,2.05a12.77,12.77,0,0,1-5-.92.8.8,0,0,1-.55-.67,6.62,6.62,0,0,1-2.59-2.58,9.45,9.45,0,0,1-1-2.93,3.11,3.11,0,0,1,.23-2,12.62,12.62,0,0,1,0-4.29c0-.06,0-.12,0-.19a.36.36,0,0,1,.12-.29c0-.08,0-.16,0-.24.14-.57,1.41-.8,1,0a1.94,1.94,0,0,0-.12.58c.28,4.14,4.23,6.45,8.33,7.84"/><path class="cls-50" d="M58.12,119.49c-1.16-.9-2.68,1-1.52,1.85.13.1.24.21.36.31a.94.94,0,0,0-.06.15,30.25,30.25,0,0,1-1.16,6.7c-.25.86-.66,1.86-.87,2.84-.08,0,.05,0-.12,0a14.94,14.94,0,0,1-2.47-.83,8.25,8.25,0,0,1-1-.47c-.36-.2-.72-.42-1.06-.65l-.21-.16c-1.6-1.52-3.13-3.11-4.65-4.7-.92-1-2.63.17-2.11,1.19,0,0,0,.09,0,.14,1,2.69,2.08,5.42,4.47,7.24a9.39,9.39,0,0,0,1.79,1,6.14,6.14,0,0,0,4.06,1.81l.28,0a5.19,5.19,0,0,0,3.47-.17,1.08,1.08,0,0,0,.37.26,1.27,1.27,0,0,0,1.41-.06A8.24,8.24,0,0,0,62,132a1.36,1.36,0,0,0,.11-.25c0-.06,0-.13,0-.19s.1-.32.15-.48h0a1.27,1.27,0,0,0,1.09-1.3A13.43,13.43,0,0,0,58.12,119.49Z"/><path class="cls-33" d="M60.5,129.05a2.26,2.26,0,0,0-.62.26.54.54,0,0,0-.25.06A2.68,2.68,0,0,0,58.28,131a1.63,1.63,0,0,0,.49,1.92,1.74,1.74,0,0,0,2.08-.39,3.24,3.24,0,0,0,.79-1.85,2.53,2.53,0,0,0,0-1.13A.87.87,0,0,0,60.5,129.05Z"/><path class="cls-34" d="M60.15,129.9a.56.56,0,1,0,.42,1A.56.56,0,1,0,60.15,129.9Z"/><path class="cls-34" d="M54.38,134.49a.56.56,0,1,0,.43,1A.56.56,0,1,0,54.38,134.49Z"/><path class="cls-35" d="M50.5,111.92a.56.56,0,1,0,.43,1A.56.56,0,1,0,50.5,111.92Z"/><path class="cls-36" d="M51.4,111.9a.41.41,0,0,0-.1-.13.91.91,0,0,0-.21-.18.78.78,0,0,0-.39-.12h0s0,0-.06,0h-.08a.86.86,0,0,0-.61.32,1,1,0,0,0-.13.23,1,1,0,0,0-.07.25.87.87,0,0,0,.08.5.91.91,0,0,0,.33.37,1.08,1.08,0,0,0,.5.15h.26a1.18,1.18,0,0,0,.4-.17.77.77,0,0,0,.31-.7,2,2,0,0,0-.07-.26A1.23,1.23,0,0,0,51.4,111.9Z"/></g><g id="Розочка-4" data-name="Розочка"><path class="cls-51" d="M89.86,136.07c0-.19-.1-.38-.15-.57a15.11,15.11,0,0,0,.06-2.23c-.31-6.64-4.17-12.3-9.34-16.21a2.72,2.72,0,0,0-3.42.54,2.57,2.57,0,0,0-.86.75,4.11,4.11,0,0,0-.53.57,21.06,21.06,0,0,0-1.44,2.18h0l0,0c-.15.26-.31.52-.45.8a28.83,28.83,0,0,0-3,7.71,24.53,24.53,0,0,0-.84,8.35,12.32,12.32,0,0,0,3.47,7.66,14.6,14.6,0,0,0,7.52,3.72,3.49,3.49,0,0,0,.91,0,2.44,2.44,0,0,0,2.15.24,8.84,8.84,0,0,0,5.46-4.93A13.7,13.7,0,0,0,89.86,136.07Z"/><path class="cls-52" d="M79.23,116.18a1.36,1.36,0,0,0-1.29-.41,1.33,1.33,0,0,0-1.5.32,52.68,52.68,0,0,0-5.9,9,.6.6,0,0,0,0,.47c-2.08,2.5-3.26,5.13-2.28,8.17a.94.94,0,0,0,.54.51A3.11,3.11,0,0,0,69,135a3.92,3.92,0,0,0,3.32,2l.15,0a1.27,1.27,0,0,0,1.68.56,6.56,6.56,0,0,0,3.39-3.6,21.38,21.38,0,0,0,.88-2.43C81.29,126.58,82.84,121.21,79.23,116.18Z"/><path class="cls-53" d="M88.25,129.21a11.44,11.44,0,0,0-2-3.06c-.51-1.87-3.3-3.62-5-5.33-.49-.48-1.18.25-.79.75a.57.57,0,0,0,0,.25c1.28,3.45,2.63,7,2.72,10.81,0,1.89-.44,3.66-.58,5.51a10.26,10.26,0,0,0,.81,4.59.45.45,0,0,0-.11.37,1.11,1.11,0,0,0,1.34,1.1c.77-.18,1.34-1.14,1.81-1.76a15.65,15.65,0,0,0,2.79-5A10.93,10.93,0,0,0,88.25,129.21Z"/><path class="cls-54" d="M80.88,131.45a.78.78,0,0,0-.81-.32.74.74,0,0,0-.95.25,41.32,41.32,0,0,0-3.72,6.89.49.49,0,0,0,0,.35,7.26,7.26,0,0,0-1.43,6.22.6.6,0,0,0,.34.39,2.28,2.28,0,0,0,.15.57,2.45,2.45,0,0,0,2.1,1.52l.09,0a.75.75,0,0,0,1.06.43A4.77,4.77,0,0,0,79.82,145c.22-.61.4-1.23.56-1.86C82.19,139.37,83.16,135.28,80.88,131.45Z"/><path class="cls-55" d="M92.33,137.92a5.34,5.34,0,0,0-1.33-2.8,22.35,22.35,0,0,0-2.31-6.44c0-.1,0-.2-.08-.3a.63.63,0,0,0-.3-.37l-.2-.33c-.48-.76-1.75-.07-1.26.69.17.27.31.54.46.81,1.83,6.42-2,12.36-6.48,17-2.73-1.19-4.79-3.84-6.08-6.26a16.45,16.45,0,0,1-2-7.58.67.67,0,0,0,.29-.53,6.23,6.23,0,0,0-1.31-4.07.89.89,0,0,0-.3-.24.76.76,0,0,0,0-.15.59.59,0,0,0-.3-.43c-.24-.58-1.24-.73-1.37,0s-.23,1.38-.34,2.07c-.56,1.39-1.11,2.78-1.61,4.19a17.46,17.46,0,0,0-1.14,4.66c-.18,3,1.37,5.88,3.09,8.36l.09.09a10.88,10.88,0,0,0,1.44,2.87A10.53,10.53,0,0,0,76.49,153a4.15,4.15,0,0,0,.57.35,1.16,1.16,0,0,0,.38.75c2,1.71,4.8,1.24,7,.19a17.44,17.44,0,0,0,5.83-4.49,1.47,1.47,0,0,0,.35-1.34A12,12,0,0,0,92.57,143,17.9,17.9,0,0,0,92.33,137.92Z"/><path class="cls-56" d="M75.08,152.35a.87.87,0,0,0,.33.56c1.74,1.29,4.17.93,6.09.14a15,15,0,0,0,5.06-3.38,1,1,0,0,0,.3-1,8.22,8.22,0,0,0,1.68-4.16,12,12,0,0,0-.21-3.82,3.88,3.88,0,0,0-1.15-2.11,15.57,15.57,0,0,0-2-4.86c0-.07,0-.15-.07-.22a.47.47,0,0,0-.27-.28l-.17-.25c-.42-.58-1.92-.25-1.09.52a2.79,2.79,0,0,1,.4.61c1.58,4.84-1.73,9.32-5.63,12.84"/><path class="cls-57" d="M84,150.16a.89.89,0,0,1-.33.57c-1.74,1.29-4.16.93-6.09.14a15.25,15.25,0,0,1-5.06-3.39,1,1,0,0,1-.3-1,8.38,8.38,0,0,1-1.68-4.17,11.92,11.92,0,0,1,.21-3.81,3.86,3.86,0,0,1,1.16-2.12,15.28,15.28,0,0,1,2-4.85,2,2,0,0,1,.07-.23.55.55,0,0,1,.26-.28l.17-.25c.42-.57,1.92-.25,1.1.52a3.62,3.62,0,0,0-.41.61c-1.58,4.84,1.74,9.33,5.63,12.84"/><path class="cls-33" d="M88.62,143.47a3.14,3.14,0,0,0-.81,0,.72.72,0,0,0-.29-.06,3.24,3.24,0,0,0-2.23,1.21,1.82,1.82,0,0,0,2.14,2.94,3.87,3.87,0,0,0,1.71-1.73,3.19,3.19,0,0,0,.5-1.29A1.08,1.08,0,0,0,88.62,143.47Z"/><path class="cls-34" d="M87.85,145.28a.69.69,0,1,0,0,1.37A.69.69,0,1,0,87.85,145.28Z"/><path class="cls-34" d="M77.38,151.8a.69.69,0,1,0,0,1.37A.69.69,0,1,0,77.38,151.8Z"/><path class="cls-35" d="M83.41,124.29a.69.69,0,1,0,0,1.38A.69.69,0,1,0,83.41,124.29Z"/><path class="cls-36" d="M74.41,126.69a1.34,1.34,0,0,0-.2-.51,1,1,0,0,0-.38-.31l0,0s0,0-.07,0l-.07,0h0a1,1,0,0,0-.81.08,1,1,0,0,0-.26.19,1.24,1.24,0,0,0-.19.26,1.13,1.13,0,0,0,.06,1.19,1.34,1.34,0,0,0,.48.4,1,1,0,0,0,.29.1,1.14,1.14,0,0,0,.52,0,.91.91,0,0,0,.66-.65,1.86,1.86,0,0,0,0-.33A1.31,1.31,0,0,0,74.41,126.69Z"/><path class="cls-36" d="M86.85,129.09a1.05,1.05,0,0,0,0-.19,1.33,1.33,0,0,0-.15-.32,1,1,0,0,0-.38-.31h0s0,0-.07,0l-.07,0h0a1,1,0,0,0-.81.08.86.86,0,0,0-.26.2,1,1,0,0,0-.19.25,1.15,1.15,0,0,0-.14.6,1.13,1.13,0,0,0,.2.59,1.24,1.24,0,0,0,.48.4,1.45,1.45,0,0,0,.29.11,1.14,1.14,0,0,0,.52,0,.89.89,0,0,0,.66-.65,1.75,1.75,0,0,0,0-.32A1.34,1.34,0,0,0,86.85,129.09Z"/><path class="cls-35" d="M73.78,126.59a.69.69,0,1,0,0,1.38A.69.69,0,1,0,73.78,126.59Z"/><path class="cls-35" d="M78.15,116.24a.69.69,0,1,0,0,1.37A.69.69,0,1,0,78.15,116.24Z"/></g><path class="cls-24" d="M252.26,433.17c-2.88-2.41-7.17-1.61-8.35,2.21-.42,1.34-1.88,11.59-.1,11.94a5.25,5.25,0,0,0-6.2,4.6c-2.74-.59-4.1-1.95-5.84-4.17-3.47-4.44-11.06,1.39-7.85,6.06a23.1,23.1,0,0,1-5.18-1.35,11.26,11.26,0,0,1-3.59-4.68c-2.79-5.8-11.41-.73-8.63,5.05,3.21,6.67,10.37,11.91,18,11.11a11.08,11.08,0,0,0,7.15-3.69c6.63,3.23,15.2,3.67,20.39-1.42C257.93,453.11,258.79,438.61,252.26,433.17Z"/><path class="cls-24" d="M185.82,454.83c-1,4.7-5.09,6.77-9.68,5.74s-7.81-4.71-10.21-8.54c-3.4-5.45-12.05-.43-8.63,5.05,4.58,7.33,11.59,13.51,20.66,13.76,8.24.22,15.81-5.18,17.51-13.35C196.77,451.21,187.13,448.53,185.82,454.83Z"/><path class="cls-24" d="M55.22,427.54c-2.52-2.23-7.73-1.79-8.36,2.21a17.57,17.57,0,0,0-.1,3.34,4.8,4.8,0,0,0-1-.42c-.18-.5-.36-1-.55-1.51a5.1,5.1,0,0,0-7.34-3,5.81,5.81,0,0,0-2,1.55c-2.5-4.08-10.18-1.36-9,4.3,2,9.71,9.06,25.85,21.57,19.64C57.82,449,64.58,435.81,55.22,427.54Z"/><path class="cls-24" d="M79.56,441.41c-3-3.87-9.46-2.36-9.33,2.46-2.61-1.63-6.55-1.15-7.41,2.7a10.14,10.14,0,0,0-.19,1.19c-4-1.16-8.88,2.85-5.9,7,4.41,6.2,13.5,13.59,21.55,9.33C86.67,459.69,84.33,447.64,79.56,441.41Z"/><g id="Розочка-5" data-name="Розочка"><path class="cls-58" d="M104.38,52.76c.07-.18.13-.37.2-.55a15.47,15.47,0,0,0,1.33-1.8c3.55-5.61,3.63-12.46,1.64-18.63a2.7,2.7,0,0,0-3.11-1.52,2.58,2.58,0,0,0-1.13.12,4,4,0,0,0-.76.16,20.45,20.45,0,0,0-2.43,1h0l0,0c-.28.13-.56.25-.83.39a29,29,0,0,0-6.88,4.61,24.44,24.44,0,0,0-5.47,6.35,12.34,12.34,0,0,0-1.55,8.27,14.49,14.49,0,0,0,4,7.36,3.2,3.2,0,0,0,.72.55,2.43,2.43,0,0,0,1.62,1.43A8.84,8.84,0,0,0,99,59.57,13.66,13.66,0,0,0,104.38,52.76Z"/><path class="cls-59" d="M107.07,30.37a1.35,1.35,0,0,0-.82-1.08,1.33,1.33,0,0,0-1.41-.6,53.52,53.52,0,0,0-10,4,.59.59,0,0,0-.29.36c-3.14.86-5.61,2.34-6.55,5.39a.88.88,0,0,0,.15.72,3.13,3.13,0,0,0-.24.75,3.94,3.94,0,0,0,1.59,3.54s.09,0,.13.06A1.27,1.27,0,0,0,90.67,45a6.63,6.63,0,0,0,4.84-1,22.51,22.51,0,0,0,2.12-1.5C102.8,40.07,107.15,36.56,107.07,30.37Z"/><path class="cls-60" d="M107,46.22a11.5,11.5,0,0,0,.12-3.65c.66-1.83-.62-4.86-1-7.25-.12-.67-1.12-.47-1.08.17a.51.51,0,0,0-.11.22c-.92,3.57-1.88,7.28-4,10.42a51.63,51.63,0,0,1-3.64,4.18,10.21,10.21,0,0,0-2,4.22.5.5,0,0,0-.31.24,1.11,1.11,0,0,0,.47,1.67c.74.3,1.75-.16,2.49-.4a16,16,0,0,0,5.19-2.53A10.94,10.94,0,0,0,107,46.22Z"/><path class="cls-61" d="M99.67,43.82a.78.78,0,0,0-.48-.72.75.75,0,0,0-.92-.34,42,42,0,0,0-7,3.5.6.6,0,0,0-.23.28,7.27,7.27,0,0,0-4.74,4.27.63.63,0,0,0,.06.52,2,2,0,0,0-.21.55A2.48,2.48,0,0,0,87,54.32a.18.18,0,0,0,.09,0,.75.75,0,0,0,.63,1,4.73,4.73,0,0,0,3.32-1c.53-.37,1-.78,1.52-1.2C96.2,51.06,99.34,48.27,99.67,43.82Z"/><path class="cls-62" d="M105.34,55.69a5.38,5.38,0,0,0,.52-3.06,22.55,22.55,0,0,0,1.8-6.59c0-.1.07-.19.1-.29a.61.61,0,0,0,0-.48c0-.13,0-.26,0-.39,0-.9-1.4-1.06-1.44-.15,0,.31,0,.62-.08.93-2.19,6.3-8.72,9-15.07,10.21-1.55-2.53-1.72-5.88-1.4-8.61a16.66,16.66,0,0,1,2.74-7.34.67.67,0,0,0,.54-.26,6.29,6.29,0,0,0,1.27-4.09,1,1,0,0,0-.11-.37s.05-.08.07-.13a.56.56,0,0,0,0-.52c.14-.61-.59-1.31-1.12-.78s-1,1-1.46,1.49c-1.26.82-2.51,1.64-3.72,2.51a17.33,17.33,0,0,0-3.61,3.16c-1.89,2.4-2.25,5.61-2.26,8.63a.59.59,0,0,0,0,.13,10.86,10.86,0,0,0-.47,3.17,10.51,10.51,0,0,0,2,6.14c.08.21.17.41.26.61a1.19,1.19,0,0,0-.11.83c.66,2.55,3.22,3.77,5.64,4.18a17.48,17.48,0,0,0,7.35-.33,1.5,1.5,0,0,0,1.06-.9A12,12,0,0,0,102.63,60,18,18,0,0,0,105.34,55.69Z"/><path class="cls-63" d="M82.94,57.62a.85.85,0,0,0-.06.65c.69,2,2.88,3.15,4.91,3.61a15.29,15.29,0,0,0,6.09.13,1,1,0,0,0,.83-.66,8.42,8.42,0,0,0,3.76-2.45,11.71,11.71,0,0,0,2-3.25,3.81,3.81,0,0,0,.27-2.39,15.58,15.58,0,0,0,1.15-5.13c0-.07,0-.14.07-.22a.53.53,0,0,0-.06-.39c0-.1,0-.19,0-.3,0-.71-1.43-1.3-1.2-.2a3,3,0,0,1,0,.73c-1.48,4.88-6.77,6.65-12,7.29"/><path class="cls-64" d="M91.52,61a.89.89,0,0,1-.6.27c-2.16.06-3.94-1.62-5.06-3.38a15.06,15.06,0,0,1-2.21-5.67,1,1,0,0,1,.34-1,8.38,8.38,0,0,1,1-4.37,12,12,0,0,1,2.36-3,3.8,3.8,0,0,1,2.16-1.07A15.37,15.37,0,0,1,94,39.9l.18-.15a.57.57,0,0,1,.38-.08l.28-.11c.67-.22,1.71.9.6,1.06a3.11,3.11,0,0,0-.68.27C90.64,44,90.78,49.52,92,54.63"/><path class="cls-33" d="M99.11,58.11a3,3,0,0,0-.66-.45.56.56,0,0,0-.22-.21,3.17,3.17,0,0,0-2.51-.29,1.82,1.82,0,0,0,.06,3.63,3.84,3.84,0,0,0,2.4-.43,3.13,3.13,0,0,0,1.15-.78A1.07,1.07,0,0,0,99.11,58.11Z"/><path class="cls-34" d="M97.45,59.15a.69.69,0,1,0-.79,1.12A.69.69,0,1,0,97.45,59.15Z"/><path class="cls-34" d="M85.14,58.49a.69.69,0,1,0-.79,1.13A.69.69,0,1,0,85.14,58.49Z"/><path class="cls-35" d="M105.84,39.41a.69.69,0,1,0-.79,1.12A.69.69,0,1,0,105.84,39.41Z"/><path class="cls-36" d="M97.1,36.21a1.07,1.07,0,0,0,.07-.19,1,1,0,0,0,0-.34,1,1,0,0,0-.13-.48h0a.43.43,0,0,0,0-.07s0,0,0-.07h0a1,1,0,0,0-.72-.4,1.15,1.15,0,0,0-.32,0,1.51,1.51,0,0,0-.3.1,1.14,1.14,0,0,0-.46.41,1.07,1.07,0,0,0-.17.6,1.15,1.15,0,0,0,.16.6,1.1,1.1,0,0,0,.18.26,1.17,1.17,0,0,0,.43.29.9.9,0,0,0,.91-.15l.22-.24A2.38,2.38,0,0,0,97.1,36.21Z"/><path class="cls-36" d="M105.91,45.31a.67.67,0,0,0,.07-.18,1.35,1.35,0,0,0,.06-.35,1,1,0,0,0-.13-.47s0,0,0,0,0,0,0-.07l0-.07h0a1,1,0,0,0-.71-.4,1.22,1.22,0,0,0-.33,0,1.42,1.42,0,0,0-.29.1,1.19,1.19,0,0,0-.47.42,1.1,1.1,0,0,0-.17.59,1.21,1.21,0,0,0,.16.61,1.44,1.44,0,0,0,.18.25,1.06,1.06,0,0,0,.43.29.9.9,0,0,0,.91-.15,2.4,2.4,0,0,0,.22-.24A1.87,1.87,0,0,0,105.91,45.31Z"/><path class="cls-35" d="M96.64,35.77a.69.69,0,1,0-.79,1.13A.69.69,0,1,0,96.64,35.77Z"/><path class="cls-35" d="M106.16,29.8a.69.69,0,1,0-.79,1.12A.69.69,0,1,0,106.16,29.8Z"/></g><g id="Розочка-6" data-name="Розочка"><path class="cls-65" d="M250.84,433.39c0-.27,0-.53.08-.79a22.07,22.07,0,0,0,1.17-2.8c2.81-8.53.48-17.48-4.42-24.83-1-1.46-3.22-1.65-4.76-.92a3.8,3.8,0,0,0-1.49.55,5.36,5.36,0,0,0-1,.46,31.28,31.28,0,0,0-2.95,2.09h0l0,0c-.33.26-.67.52-1,.79a40.07,40.07,0,0,0-7.68,8.36,32.55,32.55,0,0,0-5.15,10.15,16.06,16.06,0,0,0,.84,11.31,20,20,0,0,0,8.08,8.21,4.41,4.41,0,0,0,1.18.47,3.44,3.44,0,0,0,2.7,1.31,12.62,12.62,0,0,0,9.58-3.69C249,441.19,250.3,437.34,250.84,433.39Z"/><path class="cls-66" d="M246.52,403.29a4,4,0,0,0-3.62-1.41,73.87,73.87,0,0,0-12.14,8.67.75.75,0,0,0-.27.57c-3.94,2.19-6.76,5-7,9.26a1.19,1.19,0,0,0,.46.9,4,4,0,0,0-.06,1.05,5.31,5.31,0,0,0,3.41,4.06,1.18,1.18,0,0,0,.2,0,1.76,1.76,0,0,0,1.94,1.5,9.32,9.32,0,0,0,6.2-3A29.41,29.41,0,0,0,238,422.3C244.19,417.4,248.83,411.33,246.52,403.29Z"/><path class="cls-67" d="M252.05,424a14.77,14.77,0,0,0-1.13-4.8c.24-2.61-2.58-6.11-4-9.08-.4-.83-1.68-.23-1.4.59a.81.81,0,0,0-.07.33c0,5,0,10.12-1.67,14.93-.86,2.4-2.35,4.41-3.44,6.69a13.34,13.34,0,0,0-1.16,6.17.69.69,0,0,0-.33.42,1.5,1.5,0,0,0,1.23,2c1.1.14,2.31-.81,3.24-1.37a22.28,22.28,0,0,0,6.12-5.08A14.3,14.3,0,0,0,252.05,424Z"/><path class="cls-68" d="M241.29,423.36a2.15,2.15,0,0,0-2.29-.91,58.11,58.11,0,0,0-8.24,7,.71.71,0,0,0-.2.44c-2.64,1.8-4.59,4-4.91,7.19a.82.82,0,0,0,.27.65,3.5,3.5,0,0,0-.09.8,3.35,3.35,0,0,0,2,2.89.69.69,0,0,1,.13,0,1,1,0,0,0,1.19,1,6.65,6.65,0,0,0,4.14-2.46,23.3,23.3,0,0,0,1.63-2.08C239.15,434,242.42,429.27,241.29,423.36Z"/><path class="cls-69" d="M253.19,436.88a7,7,0,0,0-.39-4.16,29,29,0,0,0,.09-9.21c0-.14,0-.28,0-.42a.85.85,0,0,0-.22-.61c0-.17-.05-.34-.09-.51-.27-1.19-2.27-.9-2,.29.09.41.15.82.22,1.23-.72,9-8.63,14.69-16.78,18.48-3-2.78-4.43-7.09-5-10.74a21.5,21.5,0,0,1,1.09-10.5,1,1,0,0,0,.64-.54,8.11,8.11,0,0,0,.26-5.76,1.33,1.33,0,0,0-.28-.43,1.46,1.46,0,0,0,.05-.2.71.71,0,0,0-.18-.68c0-.84-1.28-1.51-1.79-.63l-1.46,2.44c-1.41,1.49-2.81,3-4.14,4.55a23.45,23.45,0,0,0-3.77,5.35c-1.71,3.77-1.05,8.08,0,12a.69.69,0,0,0,.07.15A13.92,13.92,0,0,0,225,448.6c.18.24.37.48.58.71a1.52,1.52,0,0,0,.14,1.12c1.8,3.1,5.7,3.8,9.13,3.51a25.14,25.14,0,0,0,9.84-2.95,2,2,0,0,0,1.11-1.53,16.3,16.3,0,0,0,5.22-6.07A23.81,23.81,0,0,0,253.19,436.88Z"/><path class="cls-70" d="M223.52,447.06a1.15,1.15,0,0,0,.16.87c1.66,2.44,5,3.12,7.93,3a21.87,21.87,0,0,0,8.3-1.92,1.4,1.4,0,0,0,.89-1.14,11.34,11.34,0,0,0,4.22-4.48,15.75,15.75,0,0,0,1.58-4.92,5.11,5.11,0,0,0-.49-3.21,20.08,20.08,0,0,0-.28-7.07c0-.11,0-.21,0-.32a.71.71,0,0,0-.21-.48c0-.13-.06-.26-.1-.39-.27-.92-2.4-1.21-1.69.15a4.48,4.48,0,0,1,.23,1c-.27,6.85-6.81,11-13.63,13.59"/><path class="cls-71" d="M236.34,448.47a1.16,1.16,0,0,1-.71.56c-2.91.82-5.92-.76-8.07-2.66a20.48,20.48,0,0,1-5-6.64,1.35,1.35,0,0,1,.1-1.43,10.8,10.8,0,0,1-.18-6,15.78,15.78,0,0,1,2.12-4.72,5.35,5.35,0,0,1,2.55-2.14,21.2,21.2,0,0,1,5-5.2c.07-.08.12-.17.19-.25a.75.75,0,0,1,.49-.23c.12-.08.22-.17.34-.24.83-.53,2.65.58,1.19,1.17a4.75,4.75,0,0,0-.83.58c-4.42,5.39-2.24,12.6,1.17,18.85"/><path class="cls-33" d="M245.61,442.17a3.9,3.9,0,0,0-1.06-.36.8.8,0,0,0-.37-.21,4.58,4.58,0,0,0-3.5.49c-1,.58-2,1.69-1.62,2.88a2.89,2.89,0,0,0,3,1.83,5.61,5.61,0,0,0,3.1-1.38,4.3,4.3,0,0,0,1.28-1.41A1.42,1.42,0,0,0,245.61,442.17Z"/><path class="cls-34" d="M243.72,444.08a.93.93,0,1,0-.66,1.74A.93.93,0,1,0,243.72,444.08Z"/><path class="cls-34" d="M226.81,447.44a.93.93,0,1,0-.67,1.74A.93.93,0,1,0,226.81,447.44Z"/><path class="cls-35" d="M248.07,415.49a.93.93,0,1,0-.66,1.74A.93.93,0,1,0,248.07,415.49Z"/><path class="cls-36" d="M235.09,414.32a1.24,1.24,0,0,0,0-.27,2.4,2.4,0,0,0-.05-.46,1.39,1.39,0,0,0-.35-.58s0,0,0,0a.27.27,0,0,0-.08-.07s0-.06-.08-.08h0a1.47,1.47,0,0,0-1.11-.28,1.26,1.26,0,0,0-.43.13,1.43,1.43,0,0,0-.37.23,1.55,1.55,0,0,0-.48.7,1.38,1.38,0,0,0,0,.83,1.65,1.65,0,0,0,.43.73,1.7,1.7,0,0,0,.33.27,1.89,1.89,0,0,0,.69.24,1.27,1.27,0,0,0,1.18-.52,2.46,2.46,0,0,0,.22-.39A2.3,2.3,0,0,0,235.09,414.32Z"/><path class="cls-36" d="M250.27,423.16a1.24,1.24,0,0,0,0-.27,1.44,1.44,0,0,0-.05-.46,1.3,1.3,0,0,0-.35-.58s0,0,0,0a.8.8,0,0,1-.15-.15h0a1.47,1.47,0,0,0-1.11-.28,1.33,1.33,0,0,0-.43.13,2.06,2.06,0,0,0-.37.23,1.6,1.6,0,0,0-.48.7,1.46,1.46,0,0,0,0,.83,1.74,1.74,0,0,0,.43.74,1.8,1.8,0,0,0,.34.26,1.63,1.63,0,0,0,.68.24,1.27,1.27,0,0,0,1.18-.52,2.08,2.08,0,0,0,.22-.38A2.6,2.6,0,0,0,250.27,423.16Z"/><path class="cls-35" d="M234.31,413.9a.93.93,0,1,0-.67,1.74A.93.93,0,1,0,234.31,413.9Z"/><path class="cls-35" d="M245.08,402.86a.93.93,0,1,0-.67,1.74A.93.93,0,1,0,245.08,402.86Z"/></g><g id="Розочка-7" data-name="Розочка"><path class="cls-72" d="M223.84,438.65l-.3-.37a12.89,12.89,0,0,0-.64-1.7c-2.32-4.87-7.25-7.8-12.73-9a2.59,2.59,0,0,0-2.65,1.57,2.26,2.26,0,0,0-.47.86,3.2,3.2,0,0,0-.26.6,17.81,17.81,0,0,0-.51,2.13h0v0c-.05.25-.1.5-.13.75a22.55,22.55,0,0,0-.07,6.81,18.28,18.28,0,0,0,1.9,6.54,9.63,9.63,0,0,0,5.24,4.58,13.53,13.53,0,0,0,7.34.23,3.37,3.37,0,0,0,.77-.28,2.4,2.4,0,0,0,1.84-.55,7.7,7.7,0,0,0,3-5.57A10.27,10.27,0,0,0,223.84,438.65Z"/><path class="cls-73" d="M219.66,431.74a11.31,11.31,0,0,0-3.28-1.87c-1.25-1.46-4.89-1.79-7.38-2.56-.7-.22-1.18.75-.56,1a.39.39,0,0,0,.13.21c2.66,2.53,5.44,5.16,6.94,8.52a44.06,44.06,0,0,1,1.43,5.21,8.47,8.47,0,0,0,2.57,3.76.45.45,0,0,0,0,.39,1.25,1.25,0,0,0,1.85.39c.77-.5,1-1.62,1.3-2.39a14.9,14.9,0,0,0,1.12-5.78A9.15,9.15,0,0,0,219.66,431.74Z"/><path class="cls-74" d="M207.64,430.75a.65.65,0,0,0-.73,0,.62.62,0,0,0-.65.49,33.46,33.46,0,0,0-.75,6.36.41.41,0,0,0,.1.27,5.76,5.76,0,0,0,.81,5.13.53.53,0,0,0,.39.18,1.53,1.53,0,0,0,.29.38,2.06,2.06,0,0,0,2.09.47.18.18,0,0,0,.07-.05.63.63,0,0,0,1,0,3.86,3.86,0,0,0,.8-2.74,14.08,14.08,0,0,0-.14-1.57C211.11,436.28,210.59,432.89,207.64,430.75Z"/><path class="cls-75" d="M226.87,439a4.36,4.36,0,0,0-1.9-1.68,17.92,17.92,0,0,0-3.78-4.09c-.06-.07-.1-.14-.16-.2a.48.48,0,0,0-.35-.18l-.25-.19c-.61-.41-1.38.51-.76.93.21.14.4.3.61.45,3.4,4.24,2.29,9.92.26,14.85a11.42,11.42,0,0,1-6.65-2.75,13.18,13.18,0,0,1-3.87-5.06.57.57,0,0,0,.06-.49A5,5,0,0,0,207.8,438a.74.74,0,0,0-.3-.08l-.06-.11a.45.45,0,0,0-.36-.23c-.36-.36-1.19-.15-1.06.44s.25,1.11.37,1.66c0,1.22,0,2.44.06,3.66a14.29,14.29,0,0,0,.56,3.86c.82,2.34,2.89,4,5,5.29l.1,0a8.64,8.64,0,0,0,2,1.69,8.75,8.75,0,0,0,5.2,1.24,4.85,4.85,0,0,0,.55.09,1,1,0,0,0,.52.44c2.08.64,4.1-.61,5.49-2.11a14.69,14.69,0,0,0,3.12-5.23,1.16,1.16,0,0,0-.15-1.12,9.51,9.51,0,0,0-.22-4.76A14.23,14.23,0,0,0,226.87,439Z"/><path class="cls-76" d="M218,455.37a.7.7,0,0,0,.44.32c1.74.41,3.5-.63,4.75-1.84a12.66,12.66,0,0,0,2.86-4.16.82.82,0,0,0-.08-.86,6.6,6.6,0,0,0,0-3.66,9.27,9.27,0,0,0-1.34-2.8,3.11,3.11,0,0,0-1.55-1.22,12.47,12.47,0,0,0-3.06-3,1.58,1.58,0,0,0-.12-.15.4.4,0,0,0-.29-.12l-.21-.14c-.5-.29-1.56.43-.68.75a2.65,2.65,0,0,1,.5.32c2.72,3.13,1.55,7.56-.37,11.44"/><path class="cls-77" d="M224.25,450.87a.78.78,0,0,1-.08.53c-.95,1.52-2.93,2-4.67,2.05a12.86,12.86,0,0,1-5-.92.8.8,0,0,1-.54-.67,6.62,6.62,0,0,1-2.59-2.58,9.45,9.45,0,0,1-1-2.93,3.11,3.11,0,0,1,.23-2,12.62,12.62,0,0,1,0-4.29c0-.06,0-.12,0-.19a.36.36,0,0,1,.12-.29c0-.08,0-.16.05-.24.14-.57,1.41-.8,1,0a1.94,1.94,0,0,0-.12.58c.28,4.14,4.23,6.45,8.33,7.84"/><path class="cls-78" d="M223.35,439.22c-1.16-.9-2.68.95-1.52,1.85.13.1.24.21.36.31a.94.94,0,0,0-.06.15,30.25,30.25,0,0,1-1.16,6.7c-.25.86-.66,1.86-.87,2.84-.08,0,.05,0-.12,0a14.94,14.94,0,0,1-2.47-.83,8.25,8.25,0,0,1-1-.47c-.36-.2-.72-.42-1.06-.65l-.21-.16c-1.6-1.52-3.13-3.11-4.65-4.7-.92-1-2.63.17-2.11,1.19,0,.05,0,.09,0,.14,1,2.69,2.08,5.42,4.47,7.24a9.39,9.39,0,0,0,1.79,1,6.14,6.14,0,0,0,4.06,1.81l.28,0a5.19,5.19,0,0,0,3.47-.17,1.08,1.08,0,0,0,.37.26,1.27,1.27,0,0,0,1.41-.06,8.24,8.24,0,0,0,2.85-4,1.36,1.36,0,0,0,.11-.25c0-.06,0-.13.05-.19s.1-.32.15-.48h0a1.27,1.27,0,0,0,1.09-1.3A13.43,13.43,0,0,0,223.35,439.22Z"/><path class="cls-33" d="M225.73,448.78a2.26,2.26,0,0,0-.62.26.54.54,0,0,0-.25.06,2.68,2.68,0,0,0-1.35,1.61,1.63,1.63,0,0,0,.49,1.92,1.74,1.74,0,0,0,2.08-.39,3.24,3.24,0,0,0,.79-1.85,2.53,2.53,0,0,0,0-1.13A.87.87,0,0,0,225.73,448.78Z"/><path class="cls-34" d="M225.38,449.63a.56.56,0,1,0,.42,1A.56.56,0,1,0,225.38,449.63Z"/><path class="cls-34" d="M219.61,454.22a.56.56,0,1,0,.43,1A.56.56,0,1,0,219.61,454.22Z"/><path class="cls-35" d="M215.73,431.65a.56.56,0,1,0,.43,1A.56.56,0,1,0,215.73,431.65Z"/><path class="cls-36" d="M216.63,431.63a.41.41,0,0,0-.1-.13,1.24,1.24,0,0,0-.21-.18.78.78,0,0,0-.39-.12h-.16a.86.86,0,0,0-.61.32,1,1,0,0,0-.13.23,1,1,0,0,0-.07.25.87.87,0,0,0,.08.5.91.91,0,0,0,.33.37,1.08,1.08,0,0,0,.5.15h.26a1.18,1.18,0,0,0,.4-.17.74.74,0,0,0,.3-.7,1.1,1.1,0,0,0-.06-.26A1.23,1.23,0,0,0,216.63,431.63Z"/></g><g id="Розочка-8" data-name="Розочка"><path class="cls-79" d="M179.29,442.19h-.58a16,16,0,0,0-2.15-.62c-6.5-1.37-12.95.94-18,5a2.7,2.7,0,0,0-.34,3.45,2.42,2.42,0,0,0,.51,1,3.8,3.8,0,0,0,.41.66,20.16,20.16,0,0,0,1.75,1.94h0l0,0c.22.22.43.44.66.64a28.65,28.65,0,0,0,6.72,4.84,24.14,24.14,0,0,0,7.86,2.91,12.28,12.28,0,0,0,8.29-1.42,14.5,14.5,0,0,0,5.49-6.34,3.19,3.19,0,0,0,.27-.88,2.45,2.45,0,0,0,.78-2,8.85,8.85,0,0,0-3.41-6.53A13.64,13.64,0,0,0,179.29,442.19Z"/><path class="cls-80" d="M157.37,447.47a1.34,1.34,0,0,0-.72,1.14,1.32,1.32,0,0,0-.07,1.54,53.39,53.39,0,0,0,7.27,8,.59.59,0,0,0,.44.15c1.9,2.64,4.14,4.44,7.33,4.26a.92.92,0,0,0,.63-.4,2.93,2.93,0,0,0,.78,0,3.94,3.94,0,0,0,2.76-2.72.77.77,0,0,0,0-.15,1.27,1.27,0,0,0,1-1.49,6.58,6.58,0,0,0-2.62-4.18A20.79,20.79,0,0,0,172,452.1C168,448.09,163.15,445.24,157.37,447.47Z"/><path class="cls-81" d="M172.26,442a11.45,11.45,0,0,0-3.47,1.16c-1.94,0-4.34,2.28-6.42,3.51-.59.35-.06,1.21.53.95a.49.49,0,0,0,.25,0c3.66-.38,7.47-.78,11.15.09a52.91,52.91,0,0,1,5.18,1.95,10.29,10.29,0,0,0,4.64.37.48.48,0,0,0,.33.2,1.11,1.11,0,0,0,1.41-1c0-.79-.77-1.58-1.25-2.2a15.67,15.67,0,0,0-4.18-4A10.94,10.94,0,0,0,172.26,442Z"/><path class="cls-82" d="M172.56,449.71a.8.8,0,0,0-.51.71.76.76,0,0,0,0,1,42.51,42.51,0,0,0,5.73,5.34.57.57,0,0,0,.34.11,7.27,7.27,0,0,0,5.66,3,.62.62,0,0,0,.46-.24,2.32,2.32,0,0,0,.59,0,2.47,2.47,0,0,0,2-1.66s0-.06,0-.09a.75.75,0,0,0,.68-.92,4.7,4.7,0,0,0-2.11-2.76,17.48,17.48,0,0,0-1.66-1C180.56,450.44,176.85,448.47,172.56,449.71Z"/><path class="cls-83" d="M181.71,440.26a5.39,5.39,0,0,0-3.05.59,22.31,22.31,0,0,0-6.81.61h-.31a.62.62,0,0,0-.43.2l-.37.1c-.86.28-.51,1.68.35,1.4.3-.09.6-.16.9-.24,6.67-.15,11.46,5,14.83,10.56-1.84,2.33-4.92,3.66-7.58,4.31a16.76,16.76,0,0,1-7.84,0,.65.65,0,0,0-.43-.42,6.31,6.31,0,0,0-4.28.24.93.93,0,0,0-.3.23l-.15,0a.54.54,0,0,0-.49.18c-.62.08-1,1-.34,1.32l1.91.85c1.2.9,2.41,1.78,3.65,2.61a17.24,17.24,0,0,0,4.22,2.28c2.91.94,6,.16,8.87-.89a.29.29,0,0,0,.11-.06,10.75,10.75,0,0,0,3.15-.67,10.44,10.44,0,0,0,5-4,4.29,4.29,0,0,0,.49-.46,1.2,1.2,0,0,0,.82-.18c2.16-1.51,2.4-4.33,2-6.75a17.61,17.61,0,0,0-2.88-6.77,1.49,1.49,0,0,0-1.21-.68,12.11,12.11,0,0,0-4.85-3.26A18.27,18.27,0,0,0,181.71,440.26Z"/><path class="cls-84" d="M191.33,460.59a.89.89,0,0,0,.63-.18c1.68-1.36,1.95-3.79,1.67-5.86a15.26,15.26,0,0,0-2-5.75,1,1,0,0,0-.9-.54,8.21,8.21,0,0,0-3.61-2.67,11.65,11.65,0,0,0-3.74-.76,3.81,3.81,0,0,0-2.34.58,15.27,15.27,0,0,0-5.21.72h-.23a.55.55,0,0,0-.34.19l-.28.1c-.66.26-.73,1.8.23,1.19a2.8,2.8,0,0,1,.69-.23c5.08-.31,8.58,4,11,8.67"/><path class="cls-85" d="M191.46,451.38a.88.88,0,0,1,.47.46c.81,2-.15,4.26-1.4,5.93a15.11,15.11,0,0,1-4.55,4,1,1,0,0,1-1.06,0,8.21,8.21,0,0,1-4.45.57,12.09,12.09,0,0,1-3.64-1.16,3.89,3.89,0,0,1-1.76-1.65,15.78,15.78,0,0,1-4.19-3.16l-.2-.12a.54.54,0,0,1-.21-.33c-.06-.08-.13-.15-.2-.23-.45-.55.25-1.92.79-.93a2.79,2.79,0,0,0,.48.55c4.29,2.75,9.46.67,13.84-2.21"/><path class="cls-33" d="M186.15,445.25a3,3,0,0,0-.19.79.57.57,0,0,0-.13.27,3.2,3.2,0,0,0,.61,2.46,1.82,1.82,0,0,0,3.38-1.33,3.87,3.87,0,0,0-1.24-2.09,3.22,3.22,0,0,0-1.13-.81A1.07,1.07,0,0,0,186.15,445.25Z"/><path class="cls-34" d="M187.7,446.46a.69.69,0,1,0,1.33.34A.69.69,0,1,0,187.7,446.46Z"/><path class="cls-34" d="M191.38,458.22a.69.69,0,1,0,1.33.35A.69.69,0,1,0,191.38,458.22Z"/><path class="cls-35" d="M166.27,445.47a.69.69,0,1,0,1.33.34A.69.69,0,1,0,166.27,445.47Z"/><path class="cls-36" d="M166.32,454.78h-.2a.93.93,0,0,0-.33.07,1,1,0,0,0-.41.29h0s0,0-.05.06,0,0,0,.06h0a1.06,1.06,0,0,0-.13.81,1,1,0,0,0,.13.3,1,1,0,0,0,.2.24,1.19,1.19,0,0,0,.55.3,1.16,1.16,0,0,0,.61-.05,1.25,1.25,0,0,0,.52-.36,1.17,1.17,0,0,0,.17-.26,1.23,1.23,0,0,0,.12-.5.86.86,0,0,0-.46-.8,1.94,1.94,0,0,0-.3-.13A2,2,0,0,0,166.32,454.78Z"/><path class="cls-36" d="M171.78,443.34h-.2a2.05,2.05,0,0,0-.34.07,1,1,0,0,0-.4.29h0l-.05.06-.05.06s0,0,0,0a1.05,1.05,0,0,0-.13.81,1,1,0,0,0,.13.29,1.64,1.64,0,0,0,.19.25,1.13,1.13,0,0,0,.55.29,1.09,1.09,0,0,0,.62-.05,1.14,1.14,0,0,0,.51-.36,1.6,1.6,0,0,0,.18-.25,1.27,1.27,0,0,0,.12-.51.92.92,0,0,0-.46-.8l-.3-.12A1.35,1.35,0,0,0,171.78,443.34Z"/><path class="cls-35" d="M166.07,455.36a.69.69,0,1,0,1.33.35A.69.69,0,1,0,166.07,455.36Z"/><path class="cls-35" d="M157.15,448.53a.69.69,0,1,0,1.34.34A.69.69,0,1,0,157.15,448.53Z"/></g><g id="Розочка-9" data-name="Розочка"><path class="cls-86" d="M49.84,408.71c-.18-.22-.38-.41-.57-.62a23.52,23.52,0,0,0-1.46-2.93c-5-8.33-13.58-12.82-22.6-14.11-1.8-.26-3.4,1.42-3.82,3.18a4,4,0,0,0-.54,1.58,6.77,6.77,0,0,0-.26,1.12,31.11,31.11,0,0,0-.25,3.85h0s0,0,0,.05c0,.45,0,.9,0,1.35A44.63,44.63,0,0,0,22,414.3a36.88,36.88,0,0,0,4.72,11.35A17.4,17.4,0,0,0,36.22,433,19.53,19.53,0,0,0,48,432.36a4.81,4.81,0,0,0,1.14-.61,3.38,3.38,0,0,0,2.8-1.24,13.56,13.56,0,0,0,3.29-10.32A20.65,20.65,0,0,0,49.84,408.71Z"/><path class="cls-87" d="M21.27,391a1.56,1.56,0,0,0-2,.19,1.55,1.55,0,0,0-1.5,1.7,130.14,130.14,0,0,0,1.79,20.88,1.69,1.69,0,0,0,.42.88c0,6.11,1.13,8.13,5.33,13,.33.37,1.59,3,2,3,.32.42,1.6.64,2,1,1.86,1.66,2.28,1.47,4.22,2.56.78.44,1.73-.52,1.78-.56,1.63-.41,2.45-.9,3-2,1.38-2.75-.78-3.73-1.45-6.88-.37-1.71-.84-3.41-1.35-5.1C34.12,408.55,30.67,397.58,21.27,391Z"/><path class="cls-88" d="M43.15,401a15.62,15.62,0,0,0-4.55-2.5c-1.91-2.05-6.53-2.28-9.81-3.23-.92-.27-1.28,1.18-.45,1.54a.83.83,0,0,0,.22.29c3.95,3.51,8.07,7.16,10.78,12,1.35,2.39,2,5,3.08,7.52a15.1,15.1,0,0,0,4.14,5.32.81.81,0,0,0,.13.56,1.52,1.52,0,0,0,2.4.45c.82-.79.85-2.44,1-3.58a24.7,24.7,0,0,0-.06-8.53A16.12,16.12,0,0,0,43.15,401Z"/><path class="cls-89" d="M35.67,409.26a1.07,1.07,0,0,0-1.22.18,1.07,1.07,0,0,0-1,1A65.69,65.69,0,0,0,33.65,422a.79.79,0,0,0,.21.48c-.29,3.4.18,6.52,2.53,9.05a.84.84,0,0,0,.68.26,3.78,3.78,0,0,0,.58.62,3.32,3.32,0,0,0,3.61.43s.06-.06.1-.09a1,1,0,0,0,1.6-.22,7.38,7.38,0,0,0,.74-5.08c-.15-.94-.37-1.87-.6-2.79C42.73,418.52,41.1,412.54,35.67,409.26Z"/><path class="cls-33" d="M53.43,419.15a4.09,4.09,0,0,0-1,.6.76.76,0,0,0-.4.15,4.72,4.72,0,0,0-1.9,3.16c-.19,1.23.07,2.78,1.25,3.35a2.8,2.8,0,0,0,3.39-1.1,5.94,5.94,0,0,0,.91-3.47,4.77,4.77,0,0,0-.28-2A1.47,1.47,0,0,0,53.43,419.15Z"/><path class="cls-34" d="M53.72,422c-1.15.69-.21,2.46,1,1.78S54.88,421.35,53.72,422Z"/><path class="cls-35" d="M33.83,398.21c-1.15.68-.21,2.45,1,1.77S35,397.52,33.83,398.21Z"/><path class="cls-36" d="M24.46,407.81a1.9,1.9,0,0,0-.19-.21,2.27,2.27,0,0,0-.4-.29,1.37,1.37,0,0,0-.69-.13h-.26a1.47,1.47,0,0,0-1,.7,1.33,1.33,0,0,0-.17.43,1.46,1.46,0,0,0-.06.46,1.79,1.79,0,0,0,.24.89,1.66,1.66,0,0,0,.65.61,1.6,1.6,0,0,0,.86.17,1.63,1.63,0,0,0,.43-.08,1.57,1.57,0,0,0,.63-.38,1.34,1.34,0,0,0,.36-1.31,2.2,2.2,0,0,0-.17-.45A2.44,2.44,0,0,0,24.46,407.81Z"/><path class="cls-36" d="M41.35,401.89l-.19-.21a2.7,2.7,0,0,0-.4-.29,1.37,1.37,0,0,0-.69-.13h0l-.11,0H39.8a1.47,1.47,0,0,0-.94.7,1.33,1.33,0,0,0-.17.43,1.48,1.48,0,0,0-.06.47,1.69,1.69,0,0,0,.24.88,1.66,1.66,0,0,0,.65.61,1.59,1.59,0,0,0,.86.17,1.65,1.65,0,0,0,1.06-.46,1.37,1.37,0,0,0,.36-1.31,2.2,2.2,0,0,0-.17-.45A2.44,2.44,0,0,0,41.35,401.89Z"/><path class="cls-35" d="M23.62,408.14c-1.15.69-.2,2.46.95,1.78S24.78,407.46,23.62,408.14Z"/><path class="cls-35" d="M21.85,391.64c-1.16.68-.21,2.45.94,1.77S23,391,21.85,391.64Z"/><path class="cls-90" d="M51,426.44a.86.86,0,0,1,.46.46c.81,2-.14,4.26-1.4,5.93a14.88,14.88,0,0,1-4.55,4,1,1,0,0,1-1,0,8.22,8.22,0,0,1-4.45.57,12.06,12.06,0,0,1-3.65-1.16,3.87,3.87,0,0,1-1.75-1.65,15.67,15.67,0,0,1-4.2-3.16l-.2-.12a.51.51,0,0,1-.2-.33c-.07-.08-.14-.15-.2-.23-.45-.55.24-1.92.78-.93a2.84,2.84,0,0,0,.49.55c4.29,2.75,9.46.67,13.84-2.22"/></g><g id="Розочка-10" data-name="Розочка"><path class="cls-91" d="M76.27,436.42c0-.2,0-.39,0-.59a15.41,15.41,0,0,0,.83-2.07c2-6.35.06-13.08-3.76-18.64a3,3,0,0,0-3.61-.75,2.79,2.79,0,0,0-1.11.39,4,4,0,0,0-.73.34,20.83,20.83,0,0,0-2.19,1.52h0l0,0c-.25.19-.5.38-.73.58a28.17,28.17,0,0,0-5.65,6.15,23.12,23.12,0,0,0-3.71,7.53,12.1,12.1,0,0,0,.83,8.47,15.93,15.93,0,0,0,6.24,6.24,3.49,3.49,0,0,0,.9.37,2.71,2.71,0,0,0,2.06,1,9.26,9.26,0,0,0,7.16-2.63A12.93,12.93,0,0,0,76.27,436.42Z"/><path class="cls-92" d="M78.29,426.68a13.59,13.59,0,0,0-1.34-4.4c.11-2.35-2.81-5.65-4.35-8.39-.43-.77-1.65-.28-1.33.47a.56.56,0,0,0-.06.3c.26,4.49.53,9.17-.91,13.46-.72,2.14-2.08,3.9-3,5.92a11,11,0,0,0-.84,5.55.52.52,0,0,0-.29.36,1.5,1.5,0,0,0,1.29,1.89c1.09.16,2.22-.65,3.1-1.12a18.57,18.57,0,0,0,5.72-4.34C78.54,433.59,78.92,430.1,78.29,426.68Z"/><path class="cls-93" d="M68.59,415.9a.77.77,0,0,0-.65-.57.76.76,0,0,0-1-.1,42.08,42.08,0,0,0-5.87,5.19.54.54,0,0,0-.14.32,7.27,7.27,0,0,0-3.49,5.35.59.59,0,0,0,.19.48,2.27,2.27,0,0,0-.06.59A2.45,2.45,0,0,0,59,429.3h.09a.75.75,0,0,0,.86.77,4.76,4.76,0,0,0,2.95-1.83c.41-.49.79-1,1.16-1.55C67.09,423.79,69.42,420.29,68.59,415.9Z"/><path class="cls-94" d="M78.62,439.25a5.35,5.35,0,0,0-.29-3.09,22.1,22.1,0,0,0,0-6.84c0-.1,0-.2,0-.3a.65.65,0,0,0-.16-.46c0-.12,0-.25-.07-.38-.19-.88-1.62-.66-1.42.22.06.3.1.61.16.92-.5,6.65-6.13,10.91-12,13.74-2.15-2.05-3.17-5.25-3.56-8a16.6,16.6,0,0,1,.76-7.8.7.7,0,0,0,.46-.4,6.26,6.26,0,0,0,.17-4.27.94.94,0,0,0-.2-.33c0-.05,0-.09,0-.14a.57.57,0,0,0-.13-.51c0-.62-.92-1.11-1.28-.47l-1,1.82c-1,1.11-2,2.23-2.95,3.38a17.44,17.44,0,0,0-2.68,4c-1.21,2.8-.73,6,0,8.91,0,.05,0,.08,0,.12a10.8,10.8,0,0,0,.37,3.19A10.51,10.51,0,0,0,58.54,448c.13.18.27.35.41.52a1.23,1.23,0,0,0,.1.84c1.29,2.29,4.08,2.81,6.53,2.59a17.62,17.62,0,0,0,7-2.21,1.49,1.49,0,0,0,.79-1.14,12,12,0,0,0,3.71-4.52A18.48,18.48,0,0,0,78.62,439.25Z"/><path class="cls-95" d="M57.46,446.86a.87.87,0,0,0,.11.64c1.19,1.81,3.59,2.31,5.67,2.23a15,15,0,0,0,5.92-1.44,1,1,0,0,0,.63-.85,8.25,8.25,0,0,0,3-3.33,11.9,11.9,0,0,0,1.12-3.65,3.93,3.93,0,0,0-.36-2.39,15.43,15.43,0,0,0-.21-5.24c0-.08,0-.16,0-.24a.49.49,0,0,0-.15-.35c0-.1,0-.2-.07-.3-.2-.68-1.72-.89-1.21.12a3.34,3.34,0,0,1,.17.71c-.18,5.09-4.84,8.16-9.7,10.11"/><path class="cls-96" d="M66.61,447.89a.86.86,0,0,1-.5.41c-2.08.62-4.23-.55-5.77-2a15.22,15.22,0,0,1-3.59-4.92,1,1,0,0,1,.07-1.06,8.23,8.23,0,0,1-.14-4.48,11.88,11.88,0,0,1,1.51-3.51A3.86,3.86,0,0,1,60,430.78a15.35,15.35,0,0,1,3.55-3.87l.14-.19a.51.51,0,0,1,.35-.17l.24-.18c.59-.39,1.89.43.85.87a3.56,3.56,0,0,0-.59.43c-3.15,4-1.58,9.35.87,14"/><path class="cls-97" d="M75.39,436.54a1.45,1.45,0,0,0-2.86.43c0,.19,0,.39.06.58a.7.7,0,0,0-.17.09,37.45,37.45,0,0,1-6.51,5.15c-.93.57-2.11,1.15-3.1,1.87l-.08-.12a19,19,0,0,1-1.48-2.78c-.22-.52-.33-.81-.47-1.23s-.28-1-.39-1.47c0-.11,0-.21-.06-.31-.15-2.7-.19-5.41-.21-8.11,0-1.63-2.44-2-2.82-.66,0,.06-.08.09-.1.15-1.36,3.25-2.64,6.65-2,10.27a11.91,11.91,0,0,0,.71,2.41,7.56,7.56,0,0,0,2.07,5l.23.24a6.19,6.19,0,0,0,3.17,2.7,1.8,1.8,0,0,0,1.41,1.64,9.85,9.85,0,0,0,5.78-1.31c.09-.05.2-.08.3-.13l.19-.14.53-.32,0,0a1.51,1.51,0,0,0,2-.28A17,17,0,0,0,75.39,436.54Z"/><path class="cls-33" d="M69.62,447.19a3.41,3.41,0,0,0-.76-.26.49.49,0,0,0-.26-.15,3.16,3.16,0,0,0-2.5.36,1.82,1.82,0,0,0,1,3.5,3.89,3.89,0,0,0,2.2-1,3.18,3.18,0,0,0,.92-1.05A1.08,1.08,0,0,0,69.62,447.19Z"/><path class="cls-34" d="M68.62,447.68a.69.69,0,1,0-.47,1.29A.69.69,0,1,0,68.62,447.68Z"/><path class="cls-34" d="M59.81,447.14a.69.69,0,1,0-.48,1.29A.69.69,0,1,0,59.81,447.14Z"/><path class="cls-35" d="M74.93,423.38a.69.69,0,1,0-.48,1.29A.69.69,0,1,0,74.93,423.38Z"/><path class="cls-36" d="M75.73,424.1a.68.68,0,0,0,0-.2,1.31,1.31,0,0,0,0-.34,1.09,1.09,0,0,0-.25-.43v0l-.06-.05-.05-.06h0a1,1,0,0,0-.79-.2,1.58,1.58,0,0,0-.31.09,1.1,1.1,0,0,0-.26.18,1.08,1.08,0,0,0-.34.52,1.06,1.06,0,0,0,0,.61,1.31,1.31,0,0,0,.31.55,1.12,1.12,0,0,0,.24.19,1.08,1.08,0,0,0,.49.18.89.89,0,0,0,.84-.38l.16-.29A2.09,2.09,0,0,0,75.73,424.1Z"/></g><path class="cls-98" d="M45.84,431.82a1.41,1.41,0,0,0,.65.65c2.59,1.09,5.16-.37,7-2.22a18.38,18.38,0,0,0,4.1-6.68,1.72,1.72,0,0,0-.15-1.52,13.73,13.73,0,0,0-.11-6.4,21.36,21.36,0,0,0-2.08-5.18A6.07,6.07,0,0,0,52.88,408a25.5,25.5,0,0,0-4.61-5.9c-.07-.09-.12-.19-.19-.28a.73.73,0,0,0-.44-.29l-.31-.28c-.75-.62-2.29.42-1,1.16a4.41,4.41,0,0,1,.76.68c4.12,6,2.53,13.55-.18,19.93"/></g></g></svg>